<svg version="1.1" id="Layer_1" xmlns="http://www.w3.org/2000/svg" xmlns:xlink="http://www.w3.org/1999/xlink" x="0px" y="0px"
	 width="100%" viewBox="0 0 500 500" enable-background="new 0 0 500 500" xml:space="preserve">
<path fill="#EFA593" opacity="1.000000" stroke="none" 
	d="
M331.000000,501.000000 
	C220.666687,501.000000 110.833389,501.000000 1.000059,501.000000 
	C1.000039,334.333405 1.000039,167.666794 1.000020,1.000148 
	C167.666565,1.000099 334.333130,1.000099 500.999756,1.000049 
	C500.999847,167.666519 500.999847,334.333038 500.999939,500.999786 
	C444.500000,501.000000 388.000000,501.000000 331.000000,501.000000 
M247.179993,203.648254 
	C247.179993,203.648254 247.328186,203.275772 247.952911,203.017395 
	C249.474976,200.718948 251.548447,198.601349 252.376877,196.075409 
	C253.370651,193.045334 251.343781,190.803802 248.299713,190.504044 
	C245.633072,190.241425 243.342712,191.371155 242.295044,194.279861 
	C244.969330,193.731018 246.773682,193.360718 248.578033,192.990417 
	C248.578156,195.273682 248.760025,197.578110 248.498016,199.830887 
	C248.375931,200.880600 247.393295,201.830231 246.355972,203.122833 
	C246.114761,203.389038 245.873550,203.655243 245.002335,204.123230 
	C244.450592,204.792648 243.898834,205.462051 243.219101,206.286728 
	C250.551712,207.934708 252.555298,207.455017 253.164886,204.698776 
	C251.134979,204.466980 249.054153,204.229355 247.179993,203.648254 
M289.179993,203.648224 
	C289.179993,203.648224 289.328217,203.275742 289.952972,203.017395 
	C291.474976,200.718933 293.548431,198.601318 294.376862,196.075394 
	C295.370636,193.045242 293.343750,190.803726 290.299652,190.503983 
	C287.632935,190.241379 285.342804,191.371338 284.294891,194.279938 
	C286.969360,193.731049 288.773682,193.360733 290.578033,192.990417 
	C290.578156,195.273697 290.760040,197.578125 290.497986,199.830917 
	C290.375885,200.880630 289.393280,201.830246 288.355927,203.122849 
	C288.114685,203.389038 287.873474,203.655228 287.002319,204.123230 
	C286.450623,204.792648 285.898956,205.462067 285.219269,206.286758 
	C292.551910,207.934692 294.555420,207.454987 295.164795,204.698853 
	C293.134888,204.467026 291.054108,204.229385 289.179993,203.648224 
M220.244278,197.100845 
	C220.403900,198.606873 220.084015,200.437119 220.832932,201.544662 
	C222.024841,203.307327 223.929123,204.588303 225.508163,206.050812 
	C227.251022,202.942978 227.151001,202.887299 224.512131,200.812088 
	C223.188477,199.771164 222.190994,198.315506 221.707718,197.035263 
	C223.133850,197.394882 224.559982,197.754501 226.706589,198.295807 
	C224.758804,194.902710 223.118576,194.149536 220.244278,197.100845 
M181.870209,311.370178 
	C190.797089,307.229431 197.644119,301.895325 194.082886,290.437042 
	C193.798859,289.523193 194.048248,288.448303 194.021667,287.449005 
	C193.565552,270.301544 193.025711,253.155563 192.729523,236.005356 
	C192.684189,233.380539 193.230362,230.466141 194.413071,228.150528 
	C198.362091,220.418777 197.976364,215.358353 192.758011,208.252869 
	C191.858032,207.027466 191.586823,204.493256 192.228806,203.130707 
	C194.851608,197.564163 197.855591,192.168655 200.910019,186.819122 
	C201.857574,185.159576 203.329422,183.765793 204.698929,182.387115 
	C208.617691,178.442078 213.307693,175.047546 216.394608,170.545334 
	C220.411362,164.686981 223.216888,157.991150 226.465698,151.615982 
	C228.281006,148.053848 229.367767,144.281570 226.251099,140.938187 
	C222.916519,137.361008 218.868225,137.593842 214.790359,139.693253 
	C205.175751,144.643158 197.502686,151.793015 192.882309,161.511337 
	C191.367126,164.698318 191.505707,169.357193 192.504272,172.885544 
	C193.847137,177.630569 194.165573,179.070068 190.164993,182.703384 
	C186.661087,167.257294 183.485626,163.578857 170.622635,159.802429 
	C171.927444,158.573288 173.556122,157.095200 175.041092,157.227692 
	C184.496414,158.071381 191.495728,154.142960 196.779251,146.666321 
	C202.155884,139.057922 204.360077,130.309860 204.525620,121.216194 
	C204.677063,112.897888 201.857666,105.018074 193.425507,102.231407 
	C182.918091,98.758888 171.978516,96.243858 161.033890,94.564049 
	C153.370285,93.387825 150.217758,96.186409 149.091614,104.037300 
	C147.845490,112.724609 147.200058,121.593277 147.380875,130.360519 
	C147.530518,137.617142 150.067444,144.457413 156.455338,149.020493 
	C160.143433,151.655014 161.361649,160.316391 157.996338,163.336624 
	C154.861877,166.149673 151.140503,168.308762 147.495041,170.884674 
	C146.342453,169.242203 145.536102,167.477081 144.204102,166.313919 
	C140.631561,163.194199 140.849289,159.896011 141.514893,155.352722 
	C143.520187,141.664825 139.659409,129.463211 128.623032,120.486450 
	C118.822548,112.514977 102.498848,115.913284 100.736504,131.293671 
	C99.576645,141.415985 101.721779,150.411987 107.596626,158.678955 
	C108.496628,159.945435 108.857643,161.791199 108.949242,163.398590 
	C109.209496,167.965286 108.318474,172.784897 109.473419,177.076279 
	C112.313782,187.630112 119.025093,195.938477 127.211746,203.205872 
	C118.568008,206.096283 113.534760,217.236893 118.512512,225.137833 
	C122.194244,230.981705 121.282990,236.325592 120.852196,242.135254 
	C120.593903,245.618637 120.112686,249.100952 120.103706,252.584717 
	C120.061668,268.887665 120.290825,285.192688 120.091118,301.492889 
	C120.040573,305.618500 121.583763,307.978424 125.024734,309.773804 
	C143.458359,319.391754 162.150299,320.588623 181.870209,311.370178 
M268.830444,371.689301 
	C269.649261,375.794891 272.018555,373.435608 273.014893,373.394775 
	C273.014893,367.686676 273.014893,362.451538 273.014893,357.216370 
	C273.309540,357.155396 273.604187,357.094421 273.898865,357.033447 
	C276.446777,362.410492 278.994720,367.787537 281.542633,373.164581 
	C282.142731,373.077362 282.742828,372.990143 283.342926,372.902924 
	C284.871155,366.939270 286.399414,360.975616 287.927673,355.011963 
	C288.312469,355.030212 288.697235,355.048462 289.082031,355.066711 
	C290.013275,360.705963 290.944550,366.345215 291.942688,372.389465 
	C295.917480,371.863556 300.610504,371.242615 305.483429,370.597870 
	C303.347443,365.555817 303.616150,364.197327 306.543091,363.208099 
	C312.026337,361.354828 313.424591,362.227570 315.307251,368.932709 
	C316.980255,368.464630 318.646393,367.998505 320.091888,367.594086 
	C316.422729,361.252472 313.029053,355.215149 309.428375,349.303955 
	C308.677460,348.071228 307.161102,347.304688 305.997528,346.323334 
	C305.305267,347.562561 304.252167,348.728668 303.983612,350.053772 
	C302.860657,355.594727 302.083466,361.206696 300.913574,366.736420 
	C300.655762,367.954895 299.311401,368.943481 298.467377,370.037903 
	C297.392700,369.196777 295.624176,368.532349 295.357544,367.485443 
	C293.793701,361.344513 292.580658,355.114227 291.200409,348.686249 
	C287.009613,348.417816 286.825226,348.479279 285.779999,352.797699 
	C284.716064,357.193451 283.797974,361.624512 282.484802,367.529480 
	C280.156433,362.115387 278.252014,358.257965 276.832733,354.229675 
	C275.353027,350.029755 272.854401,349.068634 270.093719,350.124939 
	C270.754944,357.536957 270.103455,364.231537 268.830444,371.689301 
M378.411499,286.264862 
	C380.453705,284.987854 382.495941,283.710876 385.179199,282.033051 
	C395.037933,287.471069 395.037933,287.471069 397.656830,283.985107 
	C395.206329,282.164062 392.332855,280.725769 390.680969,278.414398 
	C390.120026,277.629578 392.624481,274.632904 393.765991,272.668945 
	C394.011566,272.246429 394.474731,271.954407 394.744751,271.541473 
	C396.395630,269.017120 397.727356,265.875092 394.693939,264.138153 
	C393.194702,263.279694 389.751770,264.499268 387.961456,265.823730 
	C386.045715,267.240997 385.039734,269.888062 383.636658,271.998352 
	C383.322205,271.908478 383.007751,271.818604 382.693298,271.728729 
	C382.693298,262.990509 382.693298,254.252289 382.693298,245.433456 
	C378.491852,244.962570 376.957275,246.535889 377.071472,250.169983 
	C377.196838,254.161057 377.029877,258.160522 377.110657,262.153900 
	C377.271301,270.096863 377.514404,278.038147 378.411499,286.264862 
M219.339539,254.593079 
	C214.406677,257.002747 211.713547,261.181580 211.366776,266.421539 
	C210.946335,272.774689 211.267029,279.176880 211.267029,284.958252 
	C215.523285,285.272095 220.103851,285.461426 224.646332,285.982697 
	C230.244293,286.625122 232.166901,284.793457 231.991669,280.033417 
	C227.892700,280.033417 223.683197,280.819092 219.922714,279.854462 
	C213.851608,278.297119 217.972885,272.935883 217.217194,269.381226 
	C216.658295,266.752228 217.235580,263.734192 217.918381,261.044769 
	C218.318558,259.468567 219.675232,257.827759 221.061920,256.916168 
	C222.005859,256.295593 224.265060,256.364716 224.987854,257.081573 
	C225.734955,257.822571 225.779617,259.889526 225.327637,261.068146 
	C224.739319,262.602295 223.358627,263.832550 222.069580,265.519989 
	C228.423355,264.761719 232.456482,261.161011 231.853821,257.248444 
	C231.276611,253.501144 227.224930,252.272095 220.994675,253.958527 
	C220.674530,254.045181 220.363632,254.165939 219.339539,254.593079 
M334.802124,286.765625 
	C343.225555,286.230347 348.139221,280.313965 346.935150,272.156586 
	C346.008362,265.877716 339.899139,261.906158 334.055450,263.783569 
	C329.746613,265.167847 325.282471,271.403687 325.234650,276.105103 
	C325.182739,281.207062 328.028381,284.612396 334.802124,286.765625 
M369.274414,266.327240 
	C360.212097,261.147675 354.574646,264.001495 350.947571,272.765747 
	C349.106201,277.215118 350.468964,281.329498 354.177246,284.355682 
	C357.699463,287.230011 361.662903,287.632507 365.779419,285.474670 
	C372.172272,282.123596 373.809631,274.487427 369.274414,266.327240 
M261.785187,284.204407 
	C265.175262,288.253357 267.902832,286.464661 270.861542,283.167450 
	C263.904083,281.945923 268.008179,276.773987 266.921417,273.501282 
	C265.284790,268.572876 269.486542,266.784607 274.112061,263.719238 
	C263.200775,263.771149 268.811249,255.892944 265.890381,252.165451 
	C262.863617,252.259506 261.095551,253.224579 260.971375,256.780701 
	C260.867554,259.754578 259.963867,262.700531 259.456055,265.434387 
	C259.997955,267.679413 260.792969,269.847565 260.997070,272.070007 
	C261.344238,275.850372 261.319519,279.664886 261.785187,284.204407 
M235.549637,279.577423 
	C237.440933,284.167236 240.687744,286.912933 245.826462,286.715485 
	C250.241547,286.545807 253.786224,283.977295 254.938263,280.432831 
	C248.589447,283.973358 247.320969,284.042145 243.348083,280.926117 
	C246.437881,278.208710 249.845901,275.793610 252.433716,272.693848 
	C253.759567,271.105682 254.747940,267.525421 253.862534,266.223053 
	C252.685165,264.491272 249.487823,263.197235 247.234329,263.305023 
	C239.979309,263.651978 234.825775,270.733246 235.549637,279.577423 
M248.699860,363.639496 
	C243.706711,356.419281 251.078705,354.542297 255.043320,350.333618 
	C252.130875,350.010254 249.960419,349.769287 247.789963,349.528320 
	C248.091217,349.920807 248.392471,350.313293 248.693726,350.705780 
	C246.630188,353.536041 244.566635,356.366333 242.503098,359.196594 
	C241.886124,358.880493 241.269165,358.564423 240.652191,358.248322 
	C241.095032,355.336395 241.537872,352.424469 242.007004,349.339661 
	C240.240402,349.339661 238.502426,349.339661 237.487244,349.339661 
	C236.847733,357.173462 236.238113,364.641235 235.598251,372.479309 
	C236.866470,372.479309 238.901459,372.479309 240.938110,372.479309 
	C240.596268,370.652588 239.773056,368.824249 240.093094,367.224670 
	C240.399658,365.692261 241.893326,364.397339 242.865265,362.998016 
	C243.904785,363.893494 245.378662,364.592194 245.892395,365.725922 
	C246.925003,368.004822 247.433990,370.520996 248.323090,373.486328 
	C249.897064,373.486328 252.086517,373.486328 254.484665,373.486328 
	C252.532562,370.196960 250.787033,367.255615 248.699860,363.639496 
M189.570206,348.195587 
	C188.825867,350.387146 187.763336,352.527588 187.401703,354.780579 
	C186.583862,359.875488 189.434830,364.291901 194.056732,365.663910 
	C200.044617,367.441406 205.363129,364.717590 208.104614,358.469391 
	C210.883331,352.136353 209.677765,346.045807 205.107635,343.328583 
	C200.101837,340.352325 194.339096,341.952301 189.570206,348.195587 
M230.103821,365.486572 
	C230.959763,362.984375 232.252411,360.539124 232.587402,357.969025 
	C233.486374,351.071899 228.346863,345.653290 221.779449,346.167175 
	C216.891937,346.549622 212.328415,351.101349 211.189377,356.729828 
	C209.976807,362.721680 211.770050,367.604767 215.987061,369.793884 
	C220.557602,372.166565 225.206207,370.927582 230.103821,365.486572 
M302.535858,272.361115 
	C302.987610,275.707672 302.601959,279.487854 304.063934,282.311310 
	C307.188904,288.346680 315.796906,288.230957 319.568329,282.166443 
	C318.175842,282.461823 317.098785,282.686646 316.023376,282.919128 
	C312.271851,283.730133 309.384064,282.520996 307.896759,278.953857 
	C306.267883,275.047211 306.000031,270.926056 309.560120,268.037384 
	C310.745361,267.075623 314.123291,267.074341 315.197083,268.056732 
	C317.972198,270.595764 319.313568,269.538177 320.935120,267.258087 
	C315.727905,260.244171 306.970856,262.474243 302.535858,272.361115 
M352.054718,338.220764 
	C353.179840,335.348999 352.314880,333.855225 349.190948,334.713898 
	C345.559296,335.712097 342.031097,337.086548 338.994171,338.115967 
	C341.709808,345.851410 344.229980,353.030090 346.909241,360.661865 
	C349.452972,359.811401 352.906067,358.726715 356.308929,357.502319 
	C360.975006,355.823334 361.222015,353.966370 357.020233,350.190887 
	C356.370728,354.307007 354.620850,357.213745 349.980835,356.708679 
	C346.218170,352.222412 346.333252,348.490356 353.955780,345.807983 
	C351.435333,345.363312 350.702667,345.091156 349.994110,345.143677 
	C349.014740,345.216248 348.028046,345.789551 347.089325,345.696381 
	C344.562866,345.445587 342.869202,339.653198 345.104492,338.585693 
	C346.848480,337.752808 349.305420,338.412811 352.054718,338.220764 
M276.372162,273.207306 
	C276.251465,273.981720 276.130768,274.756134 275.877228,276.382904 
	C277.726654,274.812225 278.813995,273.888794 280.157074,272.748169 
	C282.621521,275.393646 287.535400,276.662811 284.978638,281.189911 
	C284.248993,282.481873 279.925079,281.743958 277.249329,281.936859 
	C277.080322,281.415741 276.911346,280.894623 276.742340,280.373505 
	C275.903412,281.654388 275.064453,282.935272 274.215088,284.231995 
	C279.816315,287.608490 284.129059,287.394165 287.074951,283.481873 
	C290.513000,278.915955 290.148376,274.438965 284.200867,269.054657 
	C284.020233,266.411224 284.059296,264.379883 283.603729,262.466278 
	C283.510284,262.073761 280.829742,261.669189 280.599335,262.043762 
	C279.486206,263.853302 278.713806,265.895599 277.995911,267.917603 
	C277.455658,269.439209 277.180664,271.055054 276.372162,273.207306 
M333.305145,340.031097 
	C327.728973,341.387329 322.152771,342.743561 315.938568,344.254974 
	C317.232025,347.349182 318.191956,349.645508 319.151886,351.941833 
	C320.256470,345.589050 320.256470,345.589050 324.838104,344.705078 
	C325.636993,351.641174 330.648529,357.857086 327.489655,366.013519 
	C330.545837,365.102753 333.079163,364.347809 336.112762,363.443787 
	C330.788025,359.699982 331.505066,354.210266 330.065613,349.681335 
	C329.441589,347.717926 330.259277,345.296295 330.422119,343.082794 
	C332.075256,344.390625 333.719299,345.710358 335.392303,346.992249 
	C335.616364,347.163910 335.987030,347.144226 337.988617,347.600067 
	C336.370728,344.458679 335.239807,342.262817 333.305145,340.031097 
M186.617691,345.036407 
	C189.813507,342.059326 189.743439,340.059937 186.367874,337.907227 
	C181.731644,334.950531 175.622177,335.845795 171.892700,340.028351 
	C167.379868,345.089417 166.756226,352.547333 170.480881,356.911926 
	C173.950775,360.977997 178.889191,361.576996 182.801453,358.406342 
	C174.761124,357.707275 171.884735,355.843689 172.072906,350.567017 
	C172.174820,347.709442 172.919754,344.425262 174.558777,342.209442 
	C175.955658,340.320984 179.010849,338.807922 181.396011,338.712128 
	C184.543320,338.585785 186.134277,341.296570 186.617691,345.036407 
M266.321228,205.763687 
	C269.219025,202.172531 269.359711,198.190002 267.695526,194.123657 
	C266.451599,191.084213 264.049774,190.024231 260.844452,191.004776 
	C257.239197,192.107666 254.999832,198.687469 256.630920,203.391098 
	C258.041138,207.457886 260.918060,208.359573 266.321228,205.763687 
M210.060410,207.309555 
	C211.835052,207.209442 213.609680,207.109344 216.328445,206.955978 
	C213.433411,205.537003 211.686935,204.680984 209.940460,203.824966 
	C211.197296,202.324936 211.861496,202.255478 212.440872,201.996338 
	C213.899139,201.344131 215.319122,200.606354 216.754440,199.902863 
	C215.964249,198.544464 215.431351,196.374207 214.322083,196.022675 
	C212.756012,195.526382 210.353546,195.808472 209.035507,196.762253 
	C205.908752,199.024902 206.257553,203.639145 210.060410,207.309555 
M277.880188,194.932602 
	C275.949066,198.856155 274.017944,202.779709 271.930511,207.020828 
	C275.111816,206.542770 278.669952,208.017487 281.543823,206.101425 
	C281.451813,205.635239 281.359833,205.169052 281.267853,204.702881 
	C279.488190,204.798080 277.708496,204.893295 275.182129,205.028458 
	C278.139526,200.550674 283.246002,197.444794 279.583893,192.297409 
	C278.563782,190.863602 275.398743,190.955826 273.217743,190.347977 
	C273.171356,190.743942 273.124969,191.139908 273.078583,191.535889 
	C274.607849,192.433044 276.137085,193.330215 277.880188,194.932602 
M231.981659,200.702087 
	C231.968567,198.286057 235.811768,195.237732 229.344116,193.162918 
	C229.257309,197.099365 228.974243,200.631104 229.158630,204.138260 
	C229.350800,207.793213 230.515411,208.162231 233.659393,206.362076 
	C233.071228,204.661789 232.519287,203.066238 231.981659,200.702087 
M222.019974,207.152557 
	C221.913971,207.214096 221.807953,207.275650 221.701950,207.337204 
	C221.818344,207.333160 221.934738,207.329117 222.019974,207.152557 
M219.597092,203.933823 
	C219.597092,203.933823 219.429749,203.989761 219.429749,203.989761 
	C219.429749,203.989761 219.597534,204.052582 219.597092,203.933823 
z"/>
<path fill="#EDE7E7" opacity="1.000000" stroke="none" 
	d="
M181.539337,311.546234 
	C162.150299,320.588623 143.458359,319.391754 125.024734,309.773804 
	C121.583763,307.978424 120.040573,305.618500 120.091118,301.492889 
	C120.290825,285.192688 120.061668,268.887665 120.103706,252.584717 
	C120.112686,249.100952 120.593903,245.618637 120.852196,242.135254 
	C121.282990,236.325592 122.194244,230.981705 118.512512,225.137833 
	C113.534760,217.236893 118.568008,206.096283 127.211746,203.205872 
	C119.025093,195.938477 112.313782,187.630112 109.473419,177.076279 
	C108.318474,172.784897 109.209496,167.965286 108.949242,163.398590 
	C108.857643,161.791199 108.496628,159.945435 107.596626,158.678955 
	C101.721779,150.411987 99.576645,141.415985 100.736504,131.293671 
	C102.498848,115.913284 118.822548,112.514977 128.623032,120.486450 
	C139.659409,129.463211 143.520187,141.664825 141.514893,155.352722 
	C140.849289,159.896011 140.631561,163.194199 144.204102,166.313919 
	C145.536102,167.477081 146.342453,169.242203 147.495041,170.884674 
	C151.140503,168.308762 154.861877,166.149673 157.996338,163.336624 
	C161.361649,160.316391 160.143433,151.655014 156.455338,149.020493 
	C150.067444,144.457413 147.530518,137.617142 147.380875,130.360519 
	C147.200058,121.593277 147.845490,112.724609 149.091614,104.037300 
	C150.217758,96.186409 153.370285,93.387825 161.033890,94.564049 
	C171.978516,96.243858 182.918091,98.758888 193.425507,102.231407 
	C201.857666,105.018074 204.677063,112.897888 204.525620,121.216194 
	C204.360077,130.309860 202.155884,139.057922 196.779251,146.666321 
	C191.495728,154.142960 184.496414,158.071381 175.041092,157.227692 
	C173.556122,157.095200 171.927444,158.573288 170.622635,159.802429 
	C183.485626,163.578857 186.661087,167.257294 190.164993,182.703384 
	C194.165573,179.070068 193.847137,177.630569 192.504272,172.885544 
	C191.505707,169.357193 191.367126,164.698318 192.882309,161.511337 
	C197.502686,151.793015 205.175751,144.643158 214.790359,139.693253 
	C218.868225,137.593842 222.916519,137.361008 226.251099,140.938187 
	C229.367767,144.281570 228.281006,148.053848 226.465698,151.615982 
	C223.216888,157.991150 220.411362,164.686981 216.394608,170.545334 
	C213.307693,175.047546 208.617691,178.442078 204.698929,182.387115 
	C203.329422,183.765793 201.857574,185.159576 200.910019,186.819122 
	C197.855591,192.168655 194.851608,197.564163 192.228806,203.130707 
	C191.586823,204.493256 191.858032,207.027466 192.758011,208.252869 
	C197.976364,215.358353 198.362091,220.418777 194.413071,228.150528 
	C193.230362,230.466141 192.684189,233.380539 192.729523,236.005356 
	C193.025711,253.155563 193.565552,270.301544 194.021667,287.449005 
	C194.048248,288.448303 193.798859,289.523193 194.082886,290.437042 
	C197.644119,301.895325 190.797089,307.229431 181.539337,311.546234 
M130.065079,127.275734 
	C129.844086,127.036072 129.597443,126.826607 129.103577,126.001801 
	C124.125374,120.456726 117.655357,118.426414 111.721214,120.667374 
	C105.647743,122.960945 103.802589,128.054718 103.922188,133.845367 
	C104.020538,138.607224 104.561806,143.449142 105.668381,148.073318 
	C106.586449,151.909760 108.614479,155.480591 110.400131,159.767715 
	C119.870956,150.692093 128.680420,154.694244 137.270416,158.996964 
	C139.965286,152.089676 137.927765,139.646301 132.908997,131.447113 
	C132.738525,131.172348 132.513474,130.953781 132.137024,130.219589 
	C131.824615,129.746689 131.512222,129.273773 130.963715,128.390060 
	C130.792480,128.119797 130.583176,127.883224 130.065079,127.275734 
M187.944183,218.500519 
	C188.137817,218.680267 188.331451,218.860016 188.525070,219.039780 
	C188.403214,218.650726 188.281342,218.261688 188.131104,217.422852 
	C187.928329,217.237045 187.725555,217.051239 187.522781,216.865433 
	C187.358459,217.254471 187.194122,217.643494 186.404861,218.247696 
	C185.598129,218.504517 184.791397,218.761353 183.939163,218.211914 
	C186.965683,204.550888 193.765533,192.559784 200.643951,180.612000 
	C201.010971,179.974503 201.945755,179.681305 202.570740,179.171967 
	C205.827713,176.517609 209.968460,174.423126 212.131821,171.059738 
	C216.752731,163.875641 220.495331,156.104630 224.299927,148.426498 
	C226.247665,144.495743 223.816574,141.442001 219.382690,141.957993 
	C217.786835,142.143707 216.138779,142.779907 214.739456,143.596130 
	C209.342026,146.744476 204.216858,150.206863 203.021988,157.017410 
	C203.021988,157.017410 203.033707,156.967010 202.381485,157.185501 
	C200.586777,158.634720 198.462433,159.823883 197.069107,161.589798 
	C194.525604,164.813431 193.441132,168.828857 196.630478,171.975143 
	C199.289459,174.598251 198.773758,176.498291 197.414444,179.292206 
	C191.616455,191.209305 185.981583,203.206207 180.359283,215.207764 
	C179.635773,216.752197 179.333939,218.494171 178.597275,220.939789 
	C181.034103,220.058777 182.526840,219.519089 184.153870,219.722290 
	C182.804611,220.856049 181.455353,221.989822 179.402145,223.187744 
	C177.322342,224.094254 175.242538,225.000748 172.296417,225.940659 
	C167.218109,226.556686 162.139816,227.172699 157.028351,226.974762 
	C157.725067,221.803085 155.559937,218.898483 150.334564,218.344666 
	C149.883347,220.294373 149.460037,222.123550 148.672607,223.337891 
	C147.218384,219.442657 145.986221,215.445312 144.253525,211.678162 
	C142.108032,207.013550 142.181808,202.927673 144.230759,197.961578 
	C150.835815,181.952789 144.161530,165.152557 129.292953,159.113907 
	C124.536774,157.182251 119.394897,156.432266 115.109726,160.096619 
	C110.898224,163.697968 110.240501,168.623672 111.718575,173.823730 
	C115.128563,185.820511 122.346786,195.117386 132.139893,202.609543 
	C133.553894,203.691315 135.304749,204.917114 135.847702,206.449081 
	C137.895187,212.226257 139.508240,218.157379 140.658859,223.713745 
	C139.684692,222.232269 138.710541,220.750793 137.606308,219.071518 
	C136.733765,219.368881 135.708954,219.718155 135.377106,219.831253 
	C135.540207,221.495682 135.675354,222.874741 135.212570,224.072357 
	C134.351822,223.237503 133.491058,222.402649 132.594711,220.762375 
	C131.666489,218.089737 130.738281,215.417084 130.250732,212.221741 
	C131.465683,211.446228 132.680634,210.670715 133.857834,209.919312 
	C131.437042,204.476578 129.426788,203.867523 125.269951,207.094467 
	C120.957718,210.442001 119.391479,216.182907 121.278198,221.985275 
	C124.502129,218.667130 125.137245,221.648468 125.914726,224.642517 
	C126.072914,226.492310 126.231110,228.342102 126.241264,230.759369 
	C125.865288,231.186783 125.489304,231.614197 124.420517,232.202835 
	C123.971878,233.195374 123.523239,234.187912 123.099892,236.080780 
	C123.069969,242.175140 122.919899,248.272079 123.051498,254.362946 
	C123.142296,258.565430 123.622726,262.759491 124.352539,267.014526 
	C124.352539,267.014526 124.777420,267.060364 124.848602,267.947632 
	C124.827774,270.618958 124.806946,273.290283 124.119286,276.325775 
	C123.890511,283.161835 123.636345,289.997375 123.499817,296.835297 
	C123.492111,297.221039 124.451271,297.626068 124.870461,298.691986 
	C124.553947,299.766388 124.237434,300.840820 123.478760,302.422974 
	C124.307915,303.785187 124.816177,305.707214 126.028000,306.401855 
	C129.315964,308.286591 132.780212,310.049255 136.390564,311.155304 
	C156.109818,317.196136 174.324265,314.766083 190.690735,300.349976 
	C190.796844,298.896484 190.902939,297.443024 191.016815,295.057526 
	C190.716278,288.294006 190.415741,281.530487 190.115204,274.766937 
	C189.915329,274.789917 189.715469,274.812866 189.515610,274.835846 
	C189.008377,279.557892 188.501160,284.279938 187.919464,288.067505 
	C187.872574,282.047760 187.825699,276.027985 188.508438,269.781677 
	C188.605240,267.097870 188.702057,264.414062 188.743195,261.254150 
	C188.725098,260.933289 188.745895,260.614990 188.926804,259.324585 
	C189.255646,254.516830 189.584488,249.709061 189.937378,244.020813 
	C189.903885,241.654648 189.870392,239.288467 189.850952,236.112106 
	C190.406418,231.109375 190.961884,226.106644 191.508011,221.188065 
	C190.292358,222.879501 188.995438,224.683990 186.964706,227.509476 
	C186.964706,223.521042 186.964706,220.740891 187.432709,218.047592 
	C187.432709,218.047592 187.906509,218.086868 187.944183,218.500519 
M148.167053,210.823212 
	C150.713318,211.104904 153.419601,212.049301 155.761307,211.483826 
	C158.152863,210.906357 157.290833,209.494186 154.739990,208.540909 
	C152.221497,206.497147 149.703003,204.453400 147.184509,202.409637 
	C146.719864,202.591049 146.255234,202.772476 145.790604,202.953888 
	C146.513672,205.395493 147.236740,207.837097 148.167053,210.823212 
M200.124725,113.785561 
	C198.137802,107.484138 193.114059,104.658287 187.304352,103.089821 
	C179.920425,101.096352 172.458694,99.367836 164.983032,97.743607 
	C157.089386,96.028564 153.285355,98.310242 152.364426,106.117767 
	C151.452057,113.852890 150.960876,121.720070 151.257782,129.492172 
	C151.551620,137.184738 154.076233,144.149521 161.727478,148.156662 
	C162.851242,148.745224 163.464554,151.355942 163.376007,152.979874 
	C163.222000,155.804657 162.336670,158.589554 161.723557,161.557648 
	C166.558426,162.085617 169.040909,160.925720 170.046814,156.804245 
	C170.312164,155.717072 172.607742,154.239868 173.771271,154.399338 
	C182.129425,155.544861 188.674103,152.245789 193.263794,145.804337 
	C199.876236,136.524033 202.433319,125.988243 200.124725,113.785561 
M171.269119,164.171783 
	C167.082153,165.129745 162.720413,165.630356 158.747604,167.148697 
	C152.151672,169.669556 149.594269,174.647171 150.061661,181.730682 
	C150.277939,185.008606 150.730194,188.514465 149.861847,191.572357 
	C147.717499,199.123856 151.546616,203.318344 157.381775,206.415146 
	C160.370682,208.001389 161.235687,210.052353 161.063950,213.218185 
	C160.841064,217.327332 161.009521,221.457703 161.009521,225.578949 
	C161.525055,225.609360 162.040604,225.639771 162.556137,225.670181 
	C162.895340,223.119827 163.234543,220.569473 163.731506,216.832947 
	C165.154465,220.292664 166.094482,222.578171 167.034485,224.863678 
	C167.503418,224.817307 167.972336,224.770950 168.441269,224.724579 
	C168.640839,222.421417 169.121826,220.100555 168.978378,217.818970 
	C168.720688,213.720306 169.803925,210.732925 173.314941,208.066467 
	C179.572845,203.313904 183.655075,196.818558 185.453552,189.090576 
	C188.167892,177.427139 182.826614,165.106918 171.269119,164.171783 
M123.487648,223.956131 
	C123.417419,224.325211 123.347191,224.694305 123.276962,225.063385 
	C123.438271,224.783554 123.599571,224.503708 123.487648,223.956131 
M164.513443,222.949356 
	C164.436234,223.332428 164.359024,223.715515 164.281799,224.098587 
	C164.456604,223.805603 164.631424,223.512619 164.513443,222.949356 
M187.776871,213.264099 
	C187.663834,213.119644 187.550797,212.975174 187.437775,212.830704 
	C187.464355,213.034042 187.490952,213.237396 187.776871,213.264099 
M157.525177,212.506348 
	C157.525177,212.506348 157.476303,212.525345 157.525177,212.506348 
M156.502426,214.467300 
	C156.502426,214.467300 156.519440,214.511749 156.502426,214.467300 
M135.494736,215.539459 
	C135.494736,215.539459 135.473663,215.488754 135.494736,215.539459 
z"/>
<path fill="#EDE4E4" opacity="1.000000" stroke="none" 
	d="
M268.933594,371.308228 
	C270.103455,364.231537 270.754944,357.536957 270.093719,350.124939 
	C272.854401,349.068634 275.353027,350.029755 276.832733,354.229675 
	C278.252014,358.257965 280.156433,362.115387 282.484802,367.529480 
	C283.797974,361.624512 284.716064,357.193451 285.779999,352.797699 
	C286.825226,348.479279 287.009613,348.417816 291.200409,348.686249 
	C292.580658,355.114227 293.793701,361.344513 295.357544,367.485443 
	C295.624176,368.532349 297.392700,369.196777 298.467377,370.037903 
	C299.311401,368.943481 300.655762,367.954895 300.913574,366.736420 
	C302.083466,361.206696 302.860657,355.594727 303.983612,350.053772 
	C304.252167,348.728668 305.305267,347.562561 305.997498,346.323334 
	C307.161102,347.304688 308.677460,348.071228 309.428375,349.303955 
	C313.029053,355.215149 316.422729,361.252472 320.091888,367.594086 
	C318.646393,367.998505 316.980255,368.464630 315.307251,368.932709 
	C313.424591,362.227570 312.026337,361.354828 306.543091,363.208099 
	C303.616150,364.197327 303.347443,365.555817 305.483429,370.597870 
	C300.610504,371.242615 295.917480,371.863556 291.942688,372.389465 
	C290.944550,366.345215 290.013275,360.705963 289.082031,355.066711 
	C288.697235,355.048462 288.312469,355.030212 287.927673,355.011963 
	C286.399414,360.975616 284.871155,366.939270 283.342926,372.902924 
	C282.742828,372.990143 282.142731,373.077362 281.542633,373.164581 
	C278.994720,367.787537 276.446777,362.410492 273.898865,357.033447 
	C273.604187,357.094421 273.309540,357.155396 273.014893,357.216370 
	C273.014893,362.451538 273.014893,367.686676 273.014893,373.394775 
	C272.018555,373.435608 269.649261,375.794891 268.933594,371.308228 
M305.411102,354.457245 
	C305.411102,356.499817 305.411102,358.542389 305.411102,361.207062 
	C307.633240,360.567535 309.244354,360.103851 311.584534,359.430328 
	C309.754425,356.175964 308.313934,353.614471 306.441925,350.285614 
	C305.988708,352.158295 305.795166,352.958008 305.411102,354.457245 
z"/>
<path fill="#EDE4E4" opacity="1.000000" stroke="none" 
	d="
M378.067444,286.122498 
	C377.514404,278.038147 377.271301,270.096863 377.110657,262.153900 
	C377.029877,258.160522 377.196838,254.161057 377.071472,250.169983 
	C376.957275,246.535889 378.491852,244.962570 382.693298,245.433456 
	C382.693298,254.252289 382.693298,262.990509 382.693298,271.728729 
	C383.007751,271.818604 383.322205,271.908478 383.636658,271.998352 
	C385.039734,269.888062 386.045715,267.240997 387.961456,265.823730 
	C389.751770,264.499268 393.194702,263.279694 394.693939,264.138153 
	C397.727356,265.875092 396.395630,269.017120 394.744751,271.541473 
	C394.474731,271.954407 394.011566,272.246429 393.765991,272.668945 
	C392.624481,274.632904 390.120026,277.629578 390.680969,278.414398 
	C392.332855,280.725769 395.206329,282.164062 397.656830,283.985107 
	C395.037933,287.471069 395.037933,287.471069 385.179199,282.033051 
	C382.495941,283.710876 380.453705,284.987854 378.067444,286.122498 
M384.803833,274.728729 
	C384.893341,275.294952 385.033508,276.359772 385.065155,276.356567 
	C388.134277,276.044830 390.630188,271.757446 389.363129,266.881042 
	C387.565125,269.890167 386.303772,272.001190 384.803833,274.728729 
z"/>
<path fill="#EDE7E7" opacity="1.000000" stroke="none" 
	d="
M219.693985,254.431946 
	C220.363632,254.165939 220.674530,254.045181 220.994675,253.958527 
	C227.224930,252.272095 231.276611,253.501144 231.853821,257.248444 
	C232.456482,261.161011 228.423355,264.761719 222.069580,265.519989 
	C223.358627,263.832550 224.739319,262.602295 225.327637,261.068146 
	C225.779617,259.889526 225.734955,257.822571 224.987854,257.081573 
	C224.265060,256.364716 222.005859,256.295593 221.061920,256.916168 
	C219.675232,257.827759 218.318558,259.468567 217.918381,261.044769 
	C217.235580,263.734192 216.658295,266.752228 217.217194,269.381226 
	C217.972885,272.935883 213.851608,278.297119 219.922714,279.854462 
	C223.683197,280.819092 227.892700,280.033417 231.991669,280.033417 
	C232.166901,284.793457 230.244293,286.625122 224.646332,285.982697 
	C220.103851,285.461426 215.523285,285.272095 211.267029,284.958252 
	C211.267029,279.176880 210.946335,272.774689 211.366776,266.421539 
	C211.713547,261.181580 214.406677,257.002747 219.693985,254.431946 
z"/>
<path fill="#EDE7E7" opacity="1.000000" stroke="none" 
	d="
M334.415741,286.697632 
	C328.028381,284.612396 325.182739,281.207062 325.234650,276.105103 
	C325.282471,271.403687 329.746613,265.167847 334.055450,263.783569 
	C339.899139,261.906158 346.008362,265.877716 346.935150,272.156586 
	C348.139221,280.313965 343.225555,286.230347 334.415741,286.697632 
M331.446289,271.420044 
	C331.346008,273.235382 330.591370,275.372040 331.290039,276.795105 
	C332.513733,279.287598 334.334137,281.737274 336.525177,283.374023 
	C337.333008,283.977509 341.053680,282.611481 341.424316,281.480988 
	C342.276245,278.882477 342.678131,275.596069 341.795197,273.109985 
	C340.760834,270.197571 338.169556,267.838074 335.798676,264.621552 
	C333.557861,267.978485 332.647919,269.341644 331.446289,271.420044 
z"/>
<path fill="#EDE7E7" opacity="1.000000" stroke="none" 
	d="
M369.511169,266.624695 
	C373.809631,274.487427 372.172272,282.123596 365.779419,285.474670 
	C361.662903,287.632507 357.699463,287.230011 354.177246,284.355682 
	C350.468964,281.329498 349.106201,277.215118 350.947571,272.765747 
	C354.574646,264.001495 360.212097,261.147675 369.511169,266.624695 
M363.603638,269.049042 
	C362.435333,268.220734 361.267059,267.392426 360.133972,266.589111 
	C355.828522,270.678040 354.487122,275.674866 357.325775,279.905396 
	C358.539886,281.714752 361.715454,283.633209 363.498962,283.238586 
	C365.320160,282.835663 367.792542,279.597656 367.704285,277.707001 
	C367.574341,274.922791 365.427124,272.232697 363.603638,269.049042 
z"/>
<path fill="#EDE4E4" opacity="1.000000" stroke="none" 
	d="
M261.618103,283.834717 
	C261.319519,279.664886 261.344238,275.850372 260.997070,272.070007 
	C260.792969,269.847565 259.997955,267.679413 259.456055,265.434387 
	C259.963867,262.700531 260.867554,259.754578 260.971375,256.780701 
	C261.095551,253.224579 262.863617,252.259506 265.890381,252.165451 
	C268.811249,255.892944 263.200775,263.771149 274.112061,263.719238 
	C269.486542,266.784607 265.284790,268.572876 266.921417,273.501282 
	C268.008179,276.773987 263.904083,281.945923 270.861542,283.167450 
	C267.902832,286.464661 265.175262,288.253357 261.618103,283.834717 
z"/>
<path fill="#EDE7E7" opacity="1.000000" stroke="none" 
	d="
M235.430435,279.197998 
	C234.825775,270.733246 239.979309,263.651978 247.234329,263.305023 
	C249.487823,263.197235 252.685165,264.491272 253.862534,266.223053 
	C254.747940,267.525421 253.759567,271.105682 252.433716,272.693848 
	C249.845901,275.793610 246.437881,278.208710 243.348083,280.926117 
	C247.320969,284.042145 248.589447,283.973358 254.938263,280.432831 
	C253.786224,283.977295 250.241547,286.545807 245.826462,286.715485 
	C240.687744,286.912933 237.440933,284.167236 235.430435,279.197998 
M242.136505,278.219452 
	C244.263885,275.996246 246.713501,273.982086 248.358856,271.446136 
	C249.010040,270.442474 247.873062,268.278687 247.550262,266.643066 
	C245.926193,267.032532 243.684753,266.886688 242.794998,267.912842 
	C240.228119,270.873199 238.689316,274.362793 242.136505,278.219452 
z"/>
<path fill="#EDE4E4" opacity="1.000000" stroke="none" 
	d="
M248.870667,363.976898 
	C250.787033,367.255615 252.532562,370.196960 254.484665,373.486328 
	C252.086517,373.486328 249.897064,373.486328 248.323090,373.486328 
	C247.433990,370.520996 246.925003,368.004822 245.892395,365.725922 
	C245.378662,364.592194 243.904785,363.893494 242.865265,362.998016 
	C241.893326,364.397339 240.399658,365.692261 240.093094,367.224670 
	C239.773056,368.824249 240.596268,370.652588 240.938110,372.479309 
	C238.901459,372.479309 236.866470,372.479309 235.598251,372.479309 
	C236.238113,364.641235 236.847733,357.173462 237.487244,349.339661 
	C238.502426,349.339661 240.240402,349.339661 242.007004,349.339661 
	C241.537872,352.424469 241.095032,355.336395 240.652191,358.248322 
	C241.269165,358.564423 241.886124,358.880493 242.503098,359.196594 
	C244.566635,356.366333 246.630188,353.536041 248.693726,350.705780 
	C248.392471,350.313293 248.091217,349.920807 247.789963,349.528320 
	C249.960419,349.769287 252.130875,350.010254 255.043320,350.333618 
	C251.078705,354.542297 243.706711,356.419281 248.870667,363.976898 
z"/>
<path fill="#EDE7E7" opacity="1.000000" stroke="none" 
	d="
M189.752350,347.868439 
	C194.339096,341.952301 200.101837,340.352325 205.107635,343.328583 
	C209.677765,346.045807 210.883331,352.136353 208.104614,358.469391 
	C205.363129,364.717590 200.044617,367.441406 194.056732,365.663910 
	C189.434830,364.291901 186.583862,359.875488 187.401703,354.780579 
	C187.763336,352.527588 188.825867,350.387146 189.752350,347.868439 
M200.153061,344.154816 
	C195.440277,343.731934 193.216949,346.583038 191.908066,350.522034 
	C190.537796,354.645721 190.156830,358.757111 193.523239,362.155487 
	C195.924362,364.579407 198.832123,364.836823 201.651703,362.830017 
	C207.720337,358.510712 207.270935,348.238892 200.153061,344.154816 
z"/>
<path fill="#EDE4E4" opacity="1.000000" stroke="none" 
	d="
M229.914719,365.809387 
	C225.206207,370.927582 220.557602,372.166565 215.987061,369.793884 
	C211.770050,367.604767 209.976807,362.721680 211.189377,356.729828 
	C212.328415,351.101349 216.891937,346.549622 221.779449,346.167175 
	C228.346863,345.653290 233.486374,351.071899 232.587402,357.969025 
	C232.252411,360.539124 230.959763,362.984375 229.914719,365.809387 
M214.664474,362.560394 
	C215.765030,366.276550 218.032913,368.970795 222.093277,368.583191 
	C226.102798,368.200439 228.095123,365.009460 228.591125,361.358490 
	C228.959412,358.647736 229.029221,355.532501 228.007614,353.114807 
	C227.225418,351.263672 224.569504,349.167755 222.674545,349.096100 
	C220.498856,349.013763 217.210190,350.495972 216.262878,352.283295 
	C214.816376,355.012390 214.963470,358.586121 214.664474,362.560394 
z"/>
<path fill="#EDE7E7" opacity="1.000000" stroke="none" 
	d="
M302.659363,271.981323 
	C306.970856,262.474243 315.727905,260.244171 320.935120,267.258087 
	C319.313568,269.538177 317.972198,270.595764 315.197083,268.056732 
	C314.123291,267.074341 310.745361,267.075623 309.560120,268.037384 
	C306.000031,270.926056 306.267883,275.047211 307.896759,278.953857 
	C309.384064,282.520996 312.271851,283.730133 316.023376,282.919128 
	C317.098785,282.686646 318.175842,282.461823 319.568329,282.166443 
	C315.796906,288.230957 307.188904,288.346680 304.063934,282.311310 
	C302.601959,279.487854 302.987610,275.707672 302.659363,271.981323 
z"/>
<path fill="#EDE4E4" opacity="1.000000" stroke="none" 
	d="
M351.750122,338.315094 
	C349.305420,338.412811 346.848480,337.752808 345.104492,338.585693 
	C342.869202,339.653198 344.562866,345.445587 347.089325,345.696381 
	C348.028046,345.789551 349.014740,345.216248 349.994110,345.143677 
	C350.702667,345.091156 351.435333,345.363312 353.955780,345.807983 
	C346.333252,348.490356 346.218170,352.222412 349.981018,356.708893 
	C354.620850,357.213745 356.370728,354.307007 357.020233,350.190887 
	C361.222015,353.966370 360.975006,355.823334 356.308929,357.502319 
	C352.906067,358.726715 349.452972,359.811401 346.909241,360.661865 
	C344.229980,353.030090 341.709808,345.851410 338.994171,338.115967 
	C342.031097,337.086548 345.559296,335.712097 349.190948,334.713898 
	C352.314880,333.855225 353.179840,335.348999 351.750122,338.315094 
z"/>
<path fill="#EDE7E7" opacity="1.000000" stroke="none" 
	d="
M276.579895,272.918121 
	C277.180664,271.055054 277.455658,269.439209 277.995911,267.917603 
	C278.713806,265.895599 279.486206,263.853302 280.599335,262.043762 
	C280.829742,261.669189 283.510284,262.073761 283.603729,262.466278 
	C284.059296,264.379883 284.020233,266.411224 284.200867,269.054657 
	C290.148376,274.438965 290.513000,278.915955 287.074951,283.481873 
	C284.129059,287.394165 279.816315,287.608490 274.215088,284.231995 
	C275.064453,282.935272 275.903412,281.654388 276.742340,280.373505 
	C276.911346,280.894623 277.080322,281.415741 277.249329,281.936859 
	C279.925079,281.743958 284.248993,282.481873 284.978638,281.189911 
	C287.535400,276.662811 282.621521,275.393646 280.157074,272.748169 
	C278.813995,273.888794 277.726654,274.812225 275.877228,276.382904 
	C276.130768,274.756134 276.251465,273.981720 276.579895,272.918121 
z"/>
<path fill="#EDE4E4" opacity="1.000000" stroke="none" 
	d="
M333.707031,340.049011 
	C335.239807,342.262817 336.370728,344.458679 337.988617,347.600067 
	C335.987030,347.144226 335.616364,347.163910 335.392303,346.992249 
	C333.719299,345.710358 332.075256,344.390625 330.422119,343.082794 
	C330.259277,345.296295 329.441589,347.717926 330.065613,349.681335 
	C331.505066,354.210266 330.788025,359.699982 336.112762,363.443787 
	C333.079163,364.347809 330.545837,365.102753 327.489655,366.013519 
	C330.648529,357.857086 325.636993,351.641174 324.838104,344.705078 
	C320.256470,345.589050 320.256470,345.589050 319.151886,351.941833 
	C318.191956,349.645508 317.232025,347.349182 315.938568,344.254974 
	C322.152771,342.743561 327.728973,341.387329 333.707031,340.049011 
z"/>
<path fill="#EDE4E4" opacity="1.000000" stroke="none" 
	d="
M186.410553,344.785583 
	C186.134277,341.296570 184.543320,338.585785 181.396011,338.712128 
	C179.010849,338.807922 175.955658,340.320984 174.558777,342.209442 
	C172.919754,344.425262 172.174820,347.709442 172.072906,350.567017 
	C171.884735,355.843689 174.761124,357.707275 182.801453,358.406342 
	C178.889191,361.576996 173.950775,360.977997 170.480881,356.911926 
	C166.756226,352.547333 167.379868,345.089417 171.892700,340.028351 
	C175.622177,335.845795 181.731644,334.950531 186.367874,337.907227 
	C189.743439,340.059937 189.813507,342.059326 186.410553,344.785583 
z"/>
<path fill="#EDE4E4" opacity="1.000000" stroke="none" 
	d="
M266.035645,206.006485 
	C260.918060,208.359573 258.041138,207.457886 256.630920,203.391098 
	C254.999832,198.687469 257.239197,192.107666 260.844452,191.004776 
	C264.049774,190.024231 266.451599,191.084213 267.695526,194.123657 
	C269.359711,198.190002 269.219025,202.172531 266.035645,206.006485 
M259.308411,194.478577 
	C259.174377,195.458237 258.724335,196.524734 258.965210,197.401382 
	C259.705566,200.096008 260.640594,202.747833 261.739288,205.313858 
	C261.831390,205.528961 264.581146,205.103958 264.631378,204.761505 
	C265.092285,201.618744 265.260803,198.430069 265.421722,195.250092 
	C265.442078,194.847153 264.965057,194.089355 264.655731,194.054565 
	C263.018585,193.870560 261.361359,193.865250 259.308411,194.478577 
z"/>
<path fill="#EDD9D5" opacity="1.000000" stroke="none" 
	d="
M209.715256,207.159332 
	C206.257553,203.639145 205.908752,199.024902 209.035507,196.762253 
	C210.353546,195.808472 212.756012,195.526382 214.322083,196.022675 
	C215.431351,196.374207 215.964249,198.544464 216.754440,199.902863 
	C215.319122,200.606354 213.899139,201.344131 212.440872,201.996338 
	C211.861496,202.255478 211.197296,202.324936 209.940460,203.824966 
	C211.686935,204.680984 213.433411,205.537003 216.328445,206.955978 
	C213.609680,207.109344 211.835052,207.209442 209.715256,207.159332 
z"/>
<path fill="#EDE4E4" opacity="1.000000" stroke="none" 
	d="
M277.773254,194.579987 
	C276.137085,193.330215 274.607849,192.433044 273.078583,191.535889 
	C273.124969,191.139908 273.171356,190.743942 273.217743,190.347977 
	C275.398743,190.955826 278.563782,190.863602 279.583893,192.297409 
	C283.246002,197.444794 278.139526,200.550674 275.182129,205.028458 
	C277.708496,204.893295 279.488190,204.798080 281.267853,204.702881 
	C281.359833,205.169052 281.451813,205.635239 281.543823,206.101425 
	C278.669952,208.017487 275.111816,206.542770 271.930511,207.020828 
	C274.017944,202.779709 275.949066,198.856155 277.773254,194.579987 
z"/>
<path fill="#EDD9D5" opacity="1.000000" stroke="none" 
	d="
M231.974503,201.086395 
	C232.519287,203.066238 233.071228,204.661789 233.659393,206.362076 
	C230.515411,208.162231 229.350800,207.793213 229.158630,204.138260 
	C228.974243,200.631104 229.257309,197.099365 229.344116,193.162918 
	C235.811768,195.237732 231.968567,198.286057 231.974503,201.086395 
z"/>
<path fill="#EDE4E4" opacity="1.000000" stroke="none" 
	d="
M288.800690,202.825226 
	C289.393280,201.830246 290.375885,200.880630 290.497986,199.830917 
	C290.760040,197.578125 290.578156,195.273697 290.578033,192.990417 
	C288.773682,193.360733 286.969360,193.731049 284.294891,194.279938 
	C285.342804,191.371338 287.632935,190.241379 290.299652,190.503983 
	C293.343750,190.803726 295.370636,193.045242 294.376862,196.075394 
	C293.548431,198.601318 291.474976,200.718933 289.506531,203.033676 
	C289.060089,203.049957 288.800690,202.825226 288.800690,202.825226 
z"/>
<path fill="#EDE4E4" opacity="1.000000" stroke="none" 
	d="
M246.800720,202.825226 
	C247.393295,201.830231 248.375931,200.880600 248.498016,199.830887 
	C248.760025,197.578110 248.578156,195.273682 248.578033,192.990417 
	C246.773682,193.360718 244.969330,193.731018 242.295044,194.279861 
	C243.342712,191.371155 245.633072,190.241425 248.299713,190.504044 
	C251.343781,190.803802 253.370651,193.045334 252.376877,196.075409 
	C251.548447,198.601349 249.474976,200.718948 247.506516,203.033691 
	C247.060120,203.049973 246.800720,202.825211 246.800720,202.825226 
z"/>
<path fill="#EDE4E4" opacity="1.000000" stroke="none" 
	d="
M221.046005,197.047409 
	C222.190994,198.315506 223.188477,199.771164 224.512131,200.812088 
	C227.151001,202.887299 227.251022,202.942978 225.508163,206.050812 
	C223.929123,204.588303 222.024841,203.307327 220.832932,201.544662 
	C220.084015,200.437119 220.403900,198.606873 220.608643,197.036072 
	C220.972992,196.971298 221.046005,197.047409 221.046005,197.047409 
z"/>
<path fill="#EDD9D5" opacity="1.000000" stroke="none" 
	d="
M288.973297,203.991745 
	C291.054108,204.229385 293.134888,204.467026 295.164795,204.698853 
	C294.555420,207.454987 292.551910,207.934692 285.219269,206.286758 
	C285.898956,205.462067 286.450623,204.792648 287.654144,204.039948 
	C288.528442,203.968353 288.750885,203.980042 288.973297,203.991745 
z"/>
<path fill="#EDD9D5" opacity="1.000000" stroke="none" 
	d="
M246.973328,203.991745 
	C249.054153,204.229355 251.134979,204.466980 253.164886,204.698776 
	C252.555298,207.455017 250.551712,207.934708 243.219101,206.286728 
	C243.898834,205.462051 244.450592,204.792648 245.654175,204.039948 
	C246.528442,203.968353 246.750885,203.980042 246.973328,203.991745 
z"/>
<path fill="#EDE4E4" opacity="1.000000" stroke="none" 
	d="
M220.936890,196.932877 
	C223.118576,194.149536 224.758804,194.902710 226.706589,198.295807 
	C224.559982,197.754501 223.133850,197.394882 221.376862,197.041336 
	C221.046005,197.047409 220.972992,196.971298 220.936890,196.932877 
z"/>
<path fill="#EDE4E4" opacity="1.000000" stroke="none" 
	d="
M222.035553,207.238815 
	C221.934738,207.329117 221.818344,207.333160 221.701935,207.337189 
	C221.807953,207.275650 221.913971,207.214096 222.035553,207.238815 
z"/>
<path fill="#EDE4E4" opacity="1.000000" stroke="none" 
	d="
M219.597321,203.993195 
	C219.597534,204.052582 219.429749,203.989761 219.429749,203.989761 
	C219.429749,203.989761 219.597092,203.933823 219.597321,203.993195 
z"/>
<path fill="#EDE4E4" opacity="1.000000" stroke="none" 
	d="
M247.076660,203.820007 
	C246.750885,203.980042 246.528442,203.968353 245.969177,203.939056 
	C245.873550,203.655243 246.114761,203.389038 246.578339,202.974030 
	C246.800720,202.825211 247.060120,203.049973 247.194153,203.162872 
	C247.328186,203.275772 247.179993,203.648254 247.076660,203.820007 
z"/>
<path fill="#EDE4E4" opacity="1.000000" stroke="none" 
	d="
M289.076660,203.819977 
	C288.750885,203.980042 288.528442,203.968353 287.969116,203.939041 
	C287.873474,203.655228 288.114685,203.389038 288.578308,202.974030 
	C288.800690,202.825226 289.060089,203.049957 289.194153,203.162842 
	C289.328217,203.275742 289.179993,203.648224 289.076660,203.819977 
z"/>
<path fill="#EFA695" opacity="1.000000" stroke="none" 
	d="
M186.964706,217.960739 
	C186.964706,220.740891 186.964706,223.521042 186.964706,227.509476 
	C188.995438,224.683990 190.292358,222.879501 191.508011,221.188065 
	C190.961884,226.106644 190.406418,231.109375 189.644592,236.619141 
	C184.328720,236.423172 179.234390,235.798813 176.166183,238.899033 
	C171.053070,248.289474 181.932709,249.333084 182.162369,256.664246 
	C183.640137,251.259109 184.753021,247.188614 185.880875,243.575195 
	C185.964066,247.937622 185.783447,251.871094 186.220078,255.734818 
	C186.400711,257.333252 187.903900,258.782257 188.805603,260.299225 
	C188.745895,260.614990 188.725098,260.933289 188.476624,261.713806 
	C188.066299,264.785065 187.922546,267.396667 187.778809,270.008240 
	C187.825699,276.027985 187.872574,282.047760 187.771332,288.790100 
	C187.398071,290.318878 187.172943,291.125092 186.674652,291.886383 
	C184.710892,294.251831 183.020309,296.662170 181.329727,299.072540 
	C181.657959,299.363495 181.986206,299.654449 182.314438,299.945404 
	C183.985901,299.156921 185.657349,298.368439 187.266876,297.609192 
	C188.385300,298.829498 189.363098,299.896423 190.340912,300.963318 
	C174.324265,314.766083 156.109818,317.196136 136.390564,311.155304 
	C132.780212,310.049255 129.315964,308.286591 126.028000,306.401855 
	C124.816177,305.707214 124.307915,303.785187 124.026230,302.190308 
	C126.053650,302.965302 127.533600,303.972931 129.046997,305.064331 
	C129.080429,305.148132 129.276154,305.174011 129.276154,305.174011 
	C129.276154,305.174011 128.980667,305.013367 129.038727,304.699799 
	C131.603027,296.209808 130.072540,288.070038 128.905243,279.467468 
	C128.494232,271.928894 128.052811,264.850128 127.611397,257.771332 
	C128.092224,257.702087 128.573044,257.632843 129.053864,257.563599 
	C129.626556,261.977264 130.199234,266.390961 130.771912,270.804657 
	C131.916183,267.686951 131.772354,264.621613 131.953781,261.575653 
	C132.164749,258.033539 132.660675,254.508392 133.019012,251.446625 
	C133.005096,259.409302 133.005096,266.901245 133.005096,274.393158 
	C133.283386,274.397186 133.561661,274.401184 133.839951,274.405182 
	C134.510986,266.569550 135.182022,258.733887 135.863464,250.586578 
	C135.972015,249.677795 136.070160,249.080688 136.168320,248.483582 
	C136.372269,248.474106 136.576233,248.464615 136.780182,248.455139 
	C137.002945,251.518234 137.225708,254.581329 137.448456,257.644440 
	C137.930450,257.603668 138.412445,257.562897 138.894440,257.522125 
	C138.894440,255.283813 138.957413,253.043335 138.880768,250.807663 
	C138.740128,246.705872 136.868546,240.326004 138.691193,239.008621 
	C141.919693,236.675156 147.374268,237.434464 151.893616,236.869858 
	C155.184174,236.458725 158.468765,235.999878 161.756027,235.562302 
	C161.701691,234.956863 161.647354,234.351410 161.593018,233.745956 
	C152.040710,233.745956 142.442734,233.215546 132.960785,234.032349 
	C129.621780,234.319992 127.405830,234.056000 125.113327,232.041626 
	C125.489304,231.614197 125.865288,231.186783 126.592918,230.442047 
	C128.620453,230.428833 130.296341,230.732941 132.023804,231.121429 
	C132.075378,231.205826 132.342361,231.194168 132.342361,231.194168 
	C132.342361,231.194168 132.046371,230.964172 132.005829,230.603668 
	C129.973434,228.161942 131.750290,222.568253 126.073433,223.921494 
	C125.137245,221.648468 124.502129,218.667130 121.278198,221.985275 
	C119.391479,216.182907 120.957718,210.442001 125.269951,207.094467 
	C129.426788,203.867523 131.437042,204.476578 133.857834,209.919312 
	C132.680634,210.670715 131.465683,211.446228 129.800507,212.657440 
	C128.357742,213.837296 127.365219,214.581482 125.454842,216.013840 
	C127.999992,217.983841 130.315140,219.775818 132.630295,221.567810 
	C133.491058,222.402649 134.351822,223.237503 135.794006,224.382996 
	C143.270813,225.725342 150.166153,226.757034 157.061508,227.788727 
	C162.139816,227.172699 167.218109,226.556686 172.501480,226.188965 
	C171.574036,227.982620 170.441544,229.527969 168.936203,231.582077 
	C171.255478,231.974106 172.802902,232.235657 174.329041,232.493622 
	C174.847015,231.088379 175.220627,230.074799 175.500809,229.314682 
	C176.950851,230.093399 178.237854,230.784546 179.524872,231.475693 
	C179.989731,229.822266 180.659775,228.191528 180.845932,226.507294 
	C180.966125,225.419937 180.377213,224.254196 180.106094,223.123581 
	C181.455353,221.989822 182.804611,220.856049 184.075653,219.358597 
	C183.997421,218.994904 183.984665,219.018188 183.984665,219.018188 
	C184.791397,218.761353 185.598129,218.504517 186.701050,218.122177 
	C186.997238,217.996658 186.964706,217.960739 186.964706,217.960739 
M135.902893,299.761627 
	C135.820480,299.729004 135.738068,299.696381 135.655655,299.663757 
	C135.771774,299.774719 135.887894,299.885651 135.954697,300.738312 
	C138.403275,308.155823 143.049103,311.580750 151.694992,311.239960 
	C145.867554,307.068115 140.932831,303.535339 135.902893,299.761627 
M180.391510,302.476929 
	C179.954437,302.260620 179.517380,302.044281 179.080322,301.827942 
	C178.896118,302.265045 178.711914,302.702179 178.527725,303.139282 
	C179.077316,303.065094 179.626923,302.990906 180.391510,302.476929 
M182.280487,303.777435 
	C182.436752,303.644104 182.593002,303.510773 182.749268,303.377472 
	C182.572174,303.420959 182.395081,303.464478 182.280487,303.777435 
M152.597855,312.517883 
	C152.597855,312.517883 152.472412,312.587341 152.597855,312.517883 
z"/>
<path fill="#EFA796" opacity="1.000000" stroke="none" 
	d="
M200.259125,114.176941 
	C202.433319,125.988243 199.876236,136.524033 193.263794,145.804337 
	C188.674103,152.245789 182.129425,155.544861 173.771271,154.399338 
	C172.607742,154.239868 170.312164,155.717072 170.046814,156.804245 
	C169.040909,160.925720 166.558426,162.085617 161.723557,161.557648 
	C162.336670,158.589554 163.222000,155.804657 163.376007,152.979874 
	C163.464554,151.355942 162.851242,148.745224 161.727478,148.156662 
	C154.076233,144.149521 151.551620,137.184738 151.257782,129.492172 
	C150.960876,121.720070 151.452057,113.852890 152.364426,106.117767 
	C153.285355,98.310242 157.089386,96.028564 164.983032,97.743607 
	C172.458694,99.367836 179.920425,101.096352 187.304352,103.089821 
	C193.114059,104.658287 198.137802,107.484138 200.259125,114.176941 
M172.902481,120.500221 
	C172.496323,115.794220 172.090179,111.088219 171.684036,106.382225 
	C171.449463,106.380203 171.214874,106.378181 170.980301,106.376160 
	C170.392761,117.948647 169.805222,129.521133 169.217682,141.093613 
	C169.610947,141.153244 170.004227,141.212875 170.397507,141.272507 
	C171.231323,134.651062 172.065155,128.029602 172.902481,120.500221 
M180.333130,123.702156 
	C180.147705,119.587486 179.962280,115.472816 179.776871,111.358154 
	C179.467285,111.345512 179.157700,111.332878 178.848114,111.320244 
	C178.429352,120.853081 178.010590,130.385910 177.591827,139.918747 
	C178.063965,139.970154 178.536102,140.021545 179.008240,140.072952 
	C179.488312,134.901932 179.968399,129.730896 180.333130,123.702156 
M185.205093,129.639343 
	C184.576462,133.446075 183.947815,137.252808 183.124313,142.239609 
	C186.723251,137.265701 188.609314,122.301315 186.409760,116.158920 
	C186.057388,120.361794 185.705032,124.564659 185.205093,129.639343 
M163.027496,126.959442 
	C162.846985,127.616600 162.666473,128.273758 162.485962,128.930908 
	C163.020355,128.988525 163.554749,129.046158 164.089142,129.103775 
	C165.913010,122.613167 164.579590,115.970093 164.836868,109.403831 
	C164.371170,109.384178 163.905487,109.364532 163.439804,109.344879 
	C163.439804,115.033852 163.439804,120.722824 163.027496,126.959442 
M193.953156,134.706497 
	C193.953156,131.162109 193.953156,127.617706 193.953156,124.073311 
	C193.519272,124.065300 193.085373,124.057289 192.651489,124.049278 
	C192.651489,128.320816 192.651489,132.592361 192.651489,136.908127 
	C192.835648,136.862854 193.076050,136.875687 193.140961,136.775177 
	C193.405869,136.364883 193.617142,135.919952 193.953156,134.706497 
z"/>
<path fill="#EFA897" opacity="1.000000" stroke="none" 
	d="
M171.675812,164.213104 
	C182.826614,165.106918 188.167892,177.427139 185.453552,189.090576 
	C183.655075,196.818558 179.572845,203.313904 173.314941,208.066467 
	C169.803925,210.732925 168.720688,213.720306 168.978378,217.818970 
	C169.121826,220.100555 168.640839,222.421417 168.441269,224.724579 
	C167.972336,224.770950 167.503418,224.817307 167.034485,224.863678 
	C166.094482,222.578171 165.154465,220.292664 163.731506,216.832947 
	C163.234543,220.569473 162.895340,223.119827 162.556137,225.670181 
	C162.040604,225.639771 161.525055,225.609360 161.009521,225.578949 
	C161.009521,221.457703 160.841064,217.327332 161.063950,213.218185 
	C161.235687,210.052353 160.370682,208.001389 157.381775,206.415146 
	C151.546616,203.318344 147.717499,199.123856 149.861847,191.572357 
	C150.730194,188.514465 150.277939,185.008606 150.061661,181.730682 
	C149.594269,174.647171 152.151672,169.669556 158.747604,167.148697 
	C162.720413,165.630356 167.082153,165.129745 171.675812,164.213104 
M156.219803,174.219070 
	C154.939560,176.923080 153.659317,179.627075 152.379059,182.331085 
	C152.834137,182.533188 153.289215,182.735291 153.744278,182.937408 
	C154.956528,180.100159 156.168777,177.262909 157.917313,174.140549 
	C158.523697,173.397293 159.130096,172.654037 159.736481,171.910782 
	C159.448898,171.661728 159.161301,171.412659 158.873718,171.163589 
	C158.156570,172.021835 157.439423,172.880081 156.219803,174.219070 
M170.046906,172.249634 
	C166.369492,178.880539 173.598160,180.581406 175.614639,184.665573 
	C176.011200,184.115692 176.378433,183.606476 177.230331,182.425232 
	C177.676254,185.511230 177.990372,187.685165 178.379379,190.377365 
	C181.075928,184.226715 178.713577,176.327499 173.276291,171.685760 
	C169.730606,168.658813 165.935852,168.358109 161.857040,170.440842 
	C164.423767,170.895493 166.990494,171.350143 170.046906,172.249634 
M154.225891,198.216019 
	C160.058105,204.935074 164.828094,206.355377 170.069809,202.994949 
	C165.557587,197.997208 160.623901,193.738525 152.930374,194.335449 
	C153.261673,195.461288 153.575882,196.529053 154.225891,198.216019 
z"/>
<path fill="#EFA897" opacity="1.000000" stroke="none" 
	d="
M141.283966,224.030869 
	C139.508240,218.157379 137.895187,212.226257 135.847702,206.449081 
	C135.304749,204.917114 133.553894,203.691315 132.139893,202.609543 
	C122.346786,195.117386 115.128563,185.820511 111.718575,173.823730 
	C110.240501,168.623672 110.898224,163.697968 115.109726,160.096619 
	C119.394897,156.432266 124.536774,157.182251 129.292953,159.113907 
	C144.161530,165.152557 150.835815,181.952789 144.230759,197.961578 
	C142.181808,202.927673 142.108032,207.013550 144.253525,211.678162 
	C145.986221,215.445312 147.218384,219.442657 148.985352,223.879822 
	C149.129150,224.916473 148.863174,225.854767 148.805252,225.842102 
	C146.286606,225.291107 143.786407,224.655884 141.283966,224.030869 
M124.046638,189.240601 
	C124.046638,189.240601 124.344452,189.253632 124.344452,189.253632 
	C124.344452,189.253632 124.017044,188.987305 123.834518,188.539886 
	C123.671150,188.254257 123.451180,188.022308 122.983475,187.173843 
	C120.850777,183.844788 118.718079,180.515717 116.585388,177.186661 
	C116.061928,177.562668 115.538467,177.938690 115.015007,178.314697 
	C116.667923,182.302536 118.315491,186.294250 123.111572,188.602615 
	C123.347511,188.851822 123.636200,188.993591 124.046638,189.240601 
M124.868484,178.788742 
	C125.161751,179.261063 125.455025,179.733383 125.926933,180.879471 
	C128.206238,183.708649 130.204025,186.840530 132.837097,189.289337 
	C136.029556,192.258392 140.750488,193.972000 139.319916,199.984177 
	C144.887817,185.250381 132.718475,161.556122 121.188354,161.649872 
	C121.405830,163.061111 121.670639,164.557877 121.861122,166.064072 
	C122.202362,168.762177 122.498878,171.465942 122.912979,174.813156 
	C123.507233,175.961777 124.101494,177.110382 124.868484,178.788742 
M114.885460,174.368118 
	C114.726639,174.105667 114.567825,173.843201 114.409004,173.580750 
	C114.230881,173.885971 114.052765,174.191193 113.874649,174.496399 
	C114.200989,174.597443 114.527328,174.698471 114.885460,174.368118 
z"/>
<path fill="#EFA897" opacity="1.000000" stroke="none" 
	d="
M133.135452,131.863541 
	C137.927765,139.646301 139.965286,152.089676 137.270416,158.996964 
	C128.680420,154.694244 119.870956,150.692093 110.400131,159.767715 
	C108.614479,155.480591 106.586449,151.909760 105.668381,148.073318 
	C104.561806,143.449142 104.020538,138.607224 103.922188,133.845367 
	C103.802589,128.054718 105.647743,122.960945 111.721214,120.667374 
	C117.655357,118.426414 124.125374,120.456726 129.099258,126.455017 
	C129.094940,126.908226 128.866272,127.170525 128.576523,127.109528 
	C127.895546,126.983505 127.504326,126.918472 126.897331,126.650581 
	C126.117577,126.302841 125.553596,126.157967 124.961960,125.892471 
	C124.934319,125.771866 124.617485,125.747032 124.617485,125.747032 
	C124.617485,125.747032 125.010132,125.992439 125.172981,126.219398 
	C125.819794,126.710030 126.303757,126.973694 126.864273,127.591782 
	C128.540222,131.389938 130.139633,134.833694 131.739029,138.277451 
	C132.132797,138.134369 132.526581,137.991287 132.920349,137.848221 
	C132.920349,135.917801 132.920349,133.987381 132.974594,132.009125 
	C133.028839,131.961304 133.135452,131.863541 133.135452,131.863541 
M118.574387,139.774811 
	C117.932404,140.852814 117.290413,141.930817 116.685669,142.946289 
	C118.650223,143.986130 120.793671,145.120651 122.915825,146.243896 
	C125.774261,135.687805 125.652817,133.302704 114.652397,129.935379 
	C116.103256,133.633133 117.193161,136.410919 118.574387,139.774811 
M133.514465,140.410782 
	C133.514465,140.410782 133.560638,140.500168 133.514465,140.410782 
M122.550545,124.507378 
	C122.550545,124.507378 122.502136,124.522552 122.550545,124.507378 
z"/>
<path fill="#EFA897" opacity="1.000000" stroke="none" 
	d="
M184.008514,218.987152 
	C182.526840,219.519089 181.034103,220.058777 178.597275,220.939789 
	C179.333939,218.494171 179.635773,216.752197 180.359283,215.207764 
	C185.981583,203.206207 191.616455,191.209305 197.414444,179.292206 
	C198.773758,176.498291 199.289459,174.598251 196.630478,171.975143 
	C193.441132,168.828857 194.525604,164.813431 197.069107,161.589798 
	C198.462433,159.823883 200.586777,158.634720 202.654144,157.418625 
	C201.306686,161.105408 199.686584,164.559052 198.045654,168.368546 
	C198.437195,171.703629 199.682938,172.712509 202.159164,170.368973 
	C203.232712,169.352966 204.145676,168.167282 205.427414,166.837433 
	C207.883072,161.499313 206.984497,158.367752 202.970779,157.023834 
	C204.216858,150.206863 209.342026,146.744476 214.739456,143.596130 
	C216.138779,142.779907 217.786835,142.143707 219.382690,141.957993 
	C223.816574,141.442001 226.247665,144.495743 224.299927,148.426498 
	C220.495331,156.104630 216.752731,163.875641 212.131821,171.059738 
	C209.968460,174.423126 205.827713,176.517609 202.570740,179.171967 
	C201.945755,179.681305 201.010971,179.974503 200.643951,180.612000 
	C193.765533,192.559784 186.965683,204.550888 183.961914,218.615051 
	C183.984665,219.018188 183.997421,218.994904 184.008514,218.987152 
z"/>
<path fill="#EDD9D5" opacity="1.000000" stroke="none" 
	d="
M133.032928,250.975891 
	C132.660675,254.508392 132.164749,258.033539 131.953781,261.575653 
	C131.772354,264.621613 131.916183,267.686951 130.771912,270.804657 
	C130.199234,266.390961 129.626556,261.977264 129.053864,257.563599 
	C128.573044,257.632843 128.092224,257.702087 127.611397,257.771332 
	C128.052811,264.850128 128.494232,271.928894 128.579437,279.481720 
	C127.566948,279.932983 126.910690,279.910217 126.205193,279.430420 
	C126.107109,275.166779 126.271492,271.343079 125.968933,267.556702 
	C125.105911,256.756470 124.052872,245.971451 123.074600,235.180435 
	C123.523239,234.187912 123.971878,233.195374 124.766922,232.122223 
	C127.405830,234.056000 129.621780,234.319992 132.960785,234.032349 
	C142.442734,233.215546 152.040710,233.745956 161.593018,233.745956 
	C161.647354,234.351410 161.701691,234.956863 161.756027,235.562302 
	C158.468765,235.999878 155.184174,236.458725 151.893616,236.869858 
	C147.374268,237.434464 141.919693,236.675156 138.691193,239.008621 
	C136.868546,240.326004 138.740128,246.705872 138.880768,250.807663 
	C138.957413,253.043335 138.894440,255.283813 138.894440,257.522125 
	C138.412445,257.562897 137.930450,257.603668 137.448456,257.644440 
	C137.225708,254.581329 137.002945,251.518234 136.780182,248.455139 
	C136.576233,248.464615 136.372269,248.474106 136.168320,248.483582 
	C136.070160,249.080688 135.972015,249.677795 135.513428,250.612457 
	C134.446320,250.958633 133.739639,250.967255 133.032928,250.975891 
z"/>
<path fill="#EEC5BB" opacity="1.000000" stroke="none" 
	d="
M185.865906,243.118118 
	C184.753021,247.188614 183.640137,251.259109 182.162369,256.664246 
	C181.932709,249.333084 171.053070,248.289474 176.166183,238.899033 
	C179.234390,235.798813 184.328720,236.423172 189.637573,237.024231 
	C189.870392,239.288467 189.903885,241.654648 189.636383,244.397049 
	C188.178909,244.221573 187.022400,243.669846 185.865906,243.118118 
z"/>
<path fill="#EDD9D5" opacity="1.000000" stroke="none" 
	d="
M140.971405,223.872314 
	C143.786407,224.655884 146.286606,225.291107 148.805252,225.842102 
	C148.863174,225.854767 149.129150,224.916473 149.167419,224.187241 
	C149.460037,222.123550 149.883347,220.294373 150.334564,218.344666 
	C155.559937,218.898483 157.725067,221.803085 157.044922,227.381744 
	C150.166153,226.757034 143.270813,225.725342 136.092972,224.473709 
	C135.675354,222.874741 135.540207,221.495682 135.377106,219.831253 
	C135.708954,219.718155 136.733765,219.368881 137.606308,219.071518 
	C138.710541,220.750793 139.684692,222.232269 140.971405,223.872314 
z"/>
<path fill="#EEC5BB" opacity="1.000000" stroke="none" 
	d="
M126.254433,279.887451 
	C126.910690,279.910217 127.566948,279.932983 128.549011,279.941467 
	C130.072540,288.070038 131.603027,296.209808 129.048157,304.692810 
	C128.999512,304.999390 129.013565,304.980530 129.013550,304.980530 
	C127.533600,303.972931 126.053650,302.965302 124.247314,301.936462 
	C124.237434,300.840820 124.553947,299.766388 124.931053,297.944244 
	C125.285339,295.147461 125.579033,293.098450 126.131989,290.771820 
	C126.345642,286.958649 126.300034,283.423035 126.254433,279.887451 
M126.978470,300.653076 
	C127.478828,300.425018 127.979187,300.196930 128.479538,299.968842 
	C128.099335,299.581970 127.719131,299.195099 127.338928,298.808228 
	C127.088730,299.303925 126.838531,299.799591 126.978470,300.653076 
z"/>
<path fill="#EFA897" opacity="1.000000" stroke="none" 
	d="
M126.205193,279.430420 
	C126.300034,283.423035 126.345642,286.958649 126.059105,290.359192 
	C125.413353,285.469940 125.099731,280.715790 124.786118,275.961609 
	C124.806946,273.290283 124.827774,270.618958 124.870361,267.168182 
	C124.811264,265.484314 124.730408,264.579926 124.649551,263.675507 
	C124.494972,263.681549 124.340393,263.687592 124.185814,263.693604 
	C124.100220,264.781525 124.014626,265.869415 123.929031,266.957306 
	C123.622726,262.759491 123.142296,258.565430 123.051498,254.362946 
	C122.919899,248.272079 123.069969,242.175140 123.087242,235.630615 
	C124.052872,245.971451 125.105911,256.756470 125.968933,267.556702 
	C126.271492,271.343079 126.107109,275.166779 126.205193,279.430420 
z"/>
<path fill="#EEC5BB" opacity="1.000000" stroke="none" 
	d="
M179.754120,223.155670 
	C180.377213,224.254196 180.966125,225.419937 180.845932,226.507294 
	C180.659775,228.191528 179.989731,229.822266 179.524872,231.475693 
	C178.237854,230.784546 176.950851,230.093399 175.500809,229.314682 
	C175.220627,230.074799 174.847015,231.088379 174.329041,232.493622 
	C172.802902,232.235657 171.255478,231.974106 168.936203,231.582077 
	C170.441544,229.527969 171.574036,227.982620 172.934647,226.172256 
	C175.242538,225.000748 177.322342,224.094254 179.754120,223.155670 
z"/>
<path fill="#EDD9D5" opacity="1.000000" stroke="none" 
	d="
M185.880875,243.575195 
	C187.022400,243.669846 188.178909,244.221573 189.624359,244.837296 
	C189.584488,249.709061 189.255646,254.516830 188.866211,259.811890 
	C187.903900,258.782257 186.400711,257.333252 186.220078,255.734818 
	C185.783447,251.871094 185.964066,247.937622 185.880875,243.575195 
z"/>
<path fill="#EDD9D5" opacity="1.000000" stroke="none" 
	d="
M186.947815,291.931305 
	C187.172943,291.125092 187.398071,290.318878 187.808563,289.257324 
	C188.501160,284.279938 189.008377,279.557892 189.515610,274.835846 
	C189.715469,274.812866 189.915329,274.789917 190.115204,274.766937 
	C190.415741,281.530487 190.716278,288.294006 190.699615,295.420654 
	C189.237549,294.499603 188.092682,293.215454 186.947815,291.931305 
z"/>
<path fill="#EDD9D5" opacity="1.000000" stroke="none" 
	d="
M124.452698,276.143677 
	C125.099731,280.715790 125.413353,285.469940 125.799850,290.636780 
	C125.579033,293.098450 125.285339,295.147461 124.976036,297.609314 
	C124.451271,297.626068 123.492111,297.221039 123.499817,296.835297 
	C123.636345,289.997375 123.890511,283.161835 124.452698,276.143677 
z"/>
<path fill="#EEC5BB" opacity="1.000000" stroke="none" 
	d="
M186.674637,291.886383 
	C188.092682,293.215454 189.237549,294.499603 190.695740,295.886658 
	C190.902939,297.443024 190.796844,298.896484 190.515823,300.656647 
	C189.363098,299.896423 188.385300,298.829498 187.266876,297.609192 
	C185.657349,298.368439 183.985901,299.156921 182.314438,299.945404 
	C181.986206,299.654449 181.657959,299.363495 181.329727,299.072540 
	C183.020309,296.662170 184.710892,294.251831 186.674637,291.886383 
z"/>
<path fill="#EFA897" opacity="1.000000" stroke="none" 
	d="
M147.959808,210.278717 
	C147.236740,207.837097 146.513672,205.395493 145.790604,202.953888 
	C146.255234,202.772476 146.719864,202.591049 147.184509,202.409637 
	C149.703003,204.453400 152.221497,206.497147 154.547058,208.782761 
	C152.222702,209.442642 150.091248,209.860672 147.959808,210.278717 
z"/>
<path fill="#EEC5BB" opacity="1.000000" stroke="none" 
	d="
M131.972214,231.037048 
	C130.296341,230.732941 128.620453,230.428833 126.666939,230.158310 
	C126.231110,228.342102 126.072914,226.492310 125.994080,224.282013 
	C131.750290,222.568253 129.973434,228.161942 131.986130,230.620697 
	C132.006958,230.998230 131.972214,231.037048 131.972214,231.037048 
z"/>
<path fill="#EDD9D5" opacity="1.000000" stroke="none" 
	d="
M132.612503,221.165100 
	C130.315140,219.775818 127.999992,217.983841 125.454842,216.013840 
	C127.365219,214.581482 128.357742,213.837296 129.580170,212.918793 
	C130.738281,215.417084 131.666489,218.089737 132.612503,221.165100 
z"/>
<path fill="#EDD9D5" opacity="1.000000" stroke="none" 
	d="
M148.063431,210.550964 
	C150.091248,209.860672 152.222702,209.442642 154.785767,209.030731 
	C157.290833,209.494186 158.152863,210.906357 155.761307,211.483826 
	C153.419601,212.049301 150.713318,211.104904 148.063431,210.550964 
z"/>
<path fill="#EDD9D5" opacity="1.000000" stroke="none" 
	d="
M188.143616,269.894958 
	C187.922546,267.396667 188.066299,264.785065 188.504456,261.951874 
	C188.702057,264.414062 188.605240,267.097870 188.143616,269.894958 
z"/>
<path fill="#EDD9D5" opacity="1.000000" stroke="none" 
	d="
M124.140785,266.985901 
	C124.014626,265.869415 124.100220,264.781525 124.185814,263.693604 
	C124.340393,263.687592 124.494972,263.681549 124.649551,263.675507 
	C124.730408,264.579926 124.811264,265.484314 124.834770,266.724548 
	C124.777420,267.060364 124.352539,267.014526 124.140785,266.985901 
z"/>
<path fill="#EFA695" opacity="1.000000" stroke="none" 
	d="
M123.624260,224.089996 
	C123.599571,224.503708 123.438271,224.783554 123.276962,225.063385 
	C123.347191,224.694305 123.417419,224.325211 123.624260,224.089996 
z"/>
<path fill="#EFA897" opacity="1.000000" stroke="none" 
	d="
M164.659836,223.084503 
	C164.631424,223.512619 164.456604,223.805603 164.281799,224.098587 
	C164.359024,223.715515 164.436234,223.332428 164.659836,223.084503 
z"/>
<path fill="#EFA897" opacity="1.000000" stroke="none" 
	d="
M131.199829,128.800858 
	C131.512222,129.273773 131.824615,129.746689 132.122528,130.561722 
	C132.108017,130.903854 131.981964,131.016022 131.753143,130.839081 
	C131.319550,130.131363 131.114761,129.600601 130.982819,129.003006 
	C131.055664,128.936172 131.199829,128.800858 131.199829,128.800858 
z"/>
<path fill="#EFA695" opacity="1.000000" stroke="none" 
	d="
M187.647202,213.352417 
	C187.490952,213.237396 187.464355,213.034042 187.437775,212.830704 
	C187.550797,212.975174 187.663834,213.119644 187.647202,213.352417 
z"/>
<path fill="#EFA695" opacity="1.000000" stroke="none" 
	d="
M187.013519,218.014587 
	C187.194122,217.643494 187.358459,217.254471 187.522766,216.865433 
	C187.725555,217.051239 187.928329,217.237045 188.081528,217.700684 
	C188.031952,217.978516 187.906509,218.086868 187.906509,218.086868 
	C187.906509,218.086868 187.432709,218.047592 187.198700,218.004166 
	C186.964706,217.960739 186.997238,217.996658 187.013519,218.014587 
z"/>
<path fill="#EFA695" opacity="1.000000" stroke="none" 
	d="
M188.095703,217.925568 
	C188.281342,218.261688 188.403214,218.650726 188.525070,219.039780 
	C188.331451,218.860016 188.137817,218.680267 187.925354,218.293701 
	C187.906509,218.086868 188.031952,217.978516 188.095703,217.925568 
z"/>
<path fill="#EFA897" opacity="1.000000" stroke="none" 
	d="
M129.210052,126.777779 
	C129.597443,126.826607 129.844086,127.036072 130.082550,127.591125 
	C130.100021,127.906517 129.864975,128.133499 129.672516,128.001663 
	C129.236816,127.670647 129.032227,127.437546 128.866272,127.170525 
	C128.866272,127.170525 129.094940,126.908226 129.210052,126.777779 
z"/>
<path fill="#EFA897" opacity="1.000000" stroke="none" 
	d="
M130.217926,127.793427 
	C130.583176,127.883224 130.792480,128.119797 131.081772,128.595459 
	C131.199829,128.800858 131.055664,128.936172 130.774689,128.889526 
	C130.235962,128.649109 130.026382,128.412643 129.864975,128.133499 
	C129.864975,128.133499 130.100021,127.906517 130.217926,127.793427 
z"/>
<path fill="#EFA897" opacity="1.000000" stroke="none" 
	d="
M132.170929,130.847641 
	C132.513474,130.953781 132.738525,131.172348 133.022217,131.655334 
	C133.135452,131.863541 133.028839,131.961304 132.765442,131.891769 
	C132.266525,131.593597 132.093170,131.324860 131.981964,131.016022 
	C131.981964,131.016022 132.108017,130.903854 132.170929,130.847641 
z"/>
<path fill="#EDD9D5" opacity="1.000000" stroke="none" 
	d="
M157.500732,212.515839 
	C157.476303,212.525345 157.525177,212.506348 157.500732,212.515839 
z"/>
<path fill="#EDD9D5" opacity="1.000000" stroke="none" 
	d="
M156.510925,214.489532 
	C156.519440,214.511749 156.502426,214.467300 156.510925,214.489532 
z"/>
<path fill="#EDD9D5" opacity="1.000000" stroke="none" 
	d="
M135.484192,215.514099 
	C135.473663,215.488754 135.494736,215.539459 135.484192,215.514099 
z"/>
<path fill="#EFA897" opacity="1.000000" stroke="none" 
	d="
M305.506348,354.107483 
	C305.795166,352.958008 305.988708,352.158295 306.441925,350.285614 
	C308.313934,353.614471 309.754425,356.175964 311.584534,359.430328 
	C309.244354,360.103851 307.633240,360.567535 305.411102,361.207062 
	C305.411102,358.542389 305.411102,356.499817 305.506348,354.107483 
z"/>
<path fill="#EFA897" opacity="1.000000" stroke="none" 
	d="
M384.923096,274.420471 
	C386.303772,272.001190 387.565125,269.890167 389.363129,266.881042 
	C390.630188,271.757446 388.134277,276.044830 385.065155,276.356567 
	C385.033508,276.359772 384.893341,275.294952 384.923096,274.420471 
z"/>
<path fill="#EFA897" opacity="1.000000" stroke="none" 
	d="
M331.592102,271.062439 
	C332.647919,269.341644 333.557861,267.978485 335.798676,264.621552 
	C338.169556,267.838074 340.760834,270.197571 341.795197,273.109985 
	C342.678131,275.596069 342.276245,278.882477 341.424316,281.480988 
	C341.053680,282.611481 337.333008,283.977509 336.525177,283.374023 
	C334.334137,281.737274 332.513733,279.287598 331.290039,276.795105 
	C330.591370,275.372040 331.346008,273.235382 331.592102,271.062439 
z"/>
<path fill="#EFA897" opacity="1.000000" stroke="none" 
	d="
M363.871399,269.275787 
	C365.427124,272.232697 367.574341,274.922791 367.704285,277.707001 
	C367.792542,279.597656 365.320160,282.835663 363.498962,283.238586 
	C361.715454,283.633209 358.539886,281.714752 357.325775,279.905396 
	C354.487122,275.674866 355.828522,270.678040 360.133972,266.589111 
	C361.267059,267.392426 362.435333,268.220734 363.871399,269.275787 
z"/>
<path fill="#EFA897" opacity="1.000000" stroke="none" 
	d="
M241.797394,278.208679 
	C238.689316,274.362793 240.228119,270.873199 242.794998,267.912842 
	C243.684753,266.886688 245.926193,267.032532 247.550262,266.643066 
	C247.873062,268.278687 249.010040,270.442474 248.358856,271.446136 
	C246.713501,273.982086 244.263885,275.996246 241.797394,278.208679 
z"/>
<path fill="#EFA695" opacity="1.000000" stroke="none" 
	d="
M200.529266,344.253632 
	C207.270935,348.238892 207.720337,358.510712 201.651703,362.830017 
	C198.832123,364.836823 195.924362,364.579407 193.523239,362.155487 
	C190.156830,358.757111 190.537796,354.645721 191.908066,350.522034 
	C193.216949,346.583038 195.440277,343.731934 200.529266,344.253632 
z"/>
<path fill="#EFA796" opacity="1.000000" stroke="none" 
	d="
M214.549225,362.180847 
	C214.963470,358.586121 214.816376,355.012390 216.262878,352.283295 
	C217.210190,350.495972 220.498856,349.013763 222.674545,349.096100 
	C224.569504,349.167755 227.225418,351.263672 228.007614,353.114807 
	C229.029221,355.532501 228.959412,358.647736 228.591125,361.358490 
	C228.095123,365.009460 226.102798,368.200439 222.093277,368.583191 
	C218.032913,368.970795 215.765030,366.276550 214.549225,362.180847 
z"/>
<path fill="#EFA695" opacity="1.000000" stroke="none" 
	d="
M259.509766,194.138290 
	C261.361359,193.865250 263.018585,193.870560 264.655731,194.054565 
	C264.965057,194.089355 265.442078,194.847153 265.421722,195.250092 
	C265.260803,198.430069 265.092285,201.618744 264.631378,204.761505 
	C264.581146,205.103958 261.831390,205.528961 261.739288,205.313858 
	C260.640594,202.747833 259.705566,200.096008 258.965210,197.401382 
	C258.724335,196.524734 259.174377,195.458237 259.509766,194.138290 
z"/>
<path fill="#EDD9D5" opacity="1.000000" stroke="none" 
	d="
M135.998108,300.002594 
	C140.932831,303.535339 145.867554,307.068115 151.694992,311.239960 
	C143.049103,311.580750 138.403275,308.155823 135.977356,300.369141 
	C136.000000,300.000000 135.998108,300.002594 135.998108,300.002594 
z"/>
<path fill="#EEC5BB" opacity="1.000000" stroke="none" 
	d="
M133.019012,251.446640 
	C133.739639,250.967255 134.446320,250.958633 135.503036,250.924118 
	C135.182022,258.733887 134.510986,266.569550 133.839951,274.405182 
	C133.561661,274.401184 133.283386,274.397186 133.005096,274.393158 
	C133.005096,266.901245 133.005096,259.409302 133.019012,251.446640 
z"/>
<path fill="#EEC5BB" opacity="1.000000" stroke="none" 
	d="
M180.284012,302.696838 
	C179.626923,302.990906 179.077316,303.065094 178.527725,303.139282 
	C178.711914,302.702179 178.896118,302.265045 179.080322,301.827942 
	C179.517380,302.044281 179.954437,302.260620 180.284012,302.696838 
z"/>
<path fill="#EEC5BB" opacity="1.000000" stroke="none" 
	d="
M182.249237,303.642700 
	C182.395081,303.464478 182.572174,303.420959 182.749268,303.377472 
	C182.593002,303.510773 182.436752,303.644104 182.249237,303.642700 
z"/>
<path fill="#EEC5BB" opacity="1.000000" stroke="none" 
	d="
M132.026672,230.981201 
	C132.046371,230.964172 132.342361,231.194168 132.342361,231.194168 
	C132.342361,231.194168 132.075378,231.205826 132.023804,231.121429 
	C131.972214,231.037048 132.006958,230.998230 132.026672,230.981201 
z"/>
<path fill="#EDD9D5" opacity="1.000000" stroke="none" 
	d="
M152.535126,312.552612 
	C152.472412,312.587341 152.597855,312.517883 152.535126,312.552612 
z"/>
<path fill="#EEC5BB" opacity="1.000000" stroke="none" 
	d="
M128.990082,305.006378 
	C128.980667,305.013367 129.276154,305.174011 129.276154,305.174011 
	C129.276154,305.174011 129.080429,305.148132 129.046997,305.064331 
	C129.013565,304.980530 128.999512,304.999390 128.990082,305.006378 
z"/>
<path fill="#EDD9D5" opacity="1.000000" stroke="none" 
	d="
M136.002014,299.998291 
	C135.887894,299.885651 135.771774,299.774719 135.655655,299.663757 
	C135.738068,299.696381 135.820480,299.729004 135.950500,299.882111 
	C135.998108,300.002594 136.000000,300.000000 136.002014,299.998291 
z"/>
<path fill="#EDD9D5" opacity="1.000000" stroke="none" 
	d="
M172.900726,120.954193 
	C172.065155,128.029602 171.231323,134.651062 170.397507,141.272507 
	C170.004227,141.212875 169.610947,141.153244 169.217682,141.093613 
	C169.805222,129.521133 170.392761,117.948647 170.980301,106.376160 
	C171.214874,106.378181 171.449463,106.380203 171.684036,106.382225 
	C172.090179,111.088219 172.496323,115.794220 172.900726,120.954193 
z"/>
<path fill="#EDE4E4" opacity="1.000000" stroke="none" 
	d="
M180.390808,124.131020 
	C179.968399,129.730896 179.488312,134.901932 179.008240,140.072952 
	C178.536102,140.021545 178.063965,139.970154 177.591827,139.918747 
	C178.010590,130.385910 178.429352,120.853081 178.848114,111.320244 
	C179.157700,111.332878 179.467285,111.345512 179.776871,111.358154 
	C179.962280,115.472816 180.147705,119.587486 180.390808,124.131020 
z"/>
<path fill="#EDE4E4" opacity="1.000000" stroke="none" 
	d="
M185.278870,129.203430 
	C185.705032,124.564659 186.057388,120.361794 186.409760,116.158920 
	C188.609314,122.301315 186.723251,137.265701 183.124313,142.239609 
	C183.947815,137.252808 184.576462,133.446075 185.278870,129.203430 
z"/>
<path fill="#EDD9D5" opacity="1.000000" stroke="none" 
	d="
M163.233643,126.685623 
	C163.439804,120.722824 163.439804,115.033852 163.439804,109.344879 
	C163.905487,109.364532 164.371170,109.384178 164.836868,109.403831 
	C164.579590,115.970093 165.913010,122.613167 164.089142,129.103775 
	C163.554749,129.046158 163.020355,128.988525 162.485962,128.930908 
	C162.666473,128.273758 162.846985,127.616600 163.233643,126.685623 
z"/>
<path fill="#EDD9D5" opacity="1.000000" stroke="none" 
	d="
M193.900665,135.097137 
	C193.617142,135.919952 193.405869,136.364883 193.140961,136.775177 
	C193.076050,136.875687 192.835648,136.862854 192.651489,136.908127 
	C192.651489,132.592361 192.651489,128.320816 192.651489,124.049278 
	C193.085373,124.057289 193.519272,124.065300 193.953156,124.073311 
	C193.953156,127.617706 193.953156,131.162109 193.900665,135.097137 
z"/>
<path fill="#EDD9D5" opacity="1.000000" stroke="none" 
	d="
M169.802063,172.027206 
	C166.990494,171.350143 164.423767,170.895493 161.857040,170.440842 
	C165.935852,168.358109 169.730606,168.658813 173.276291,171.685760 
	C178.713577,176.327499 181.075928,184.226715 178.379379,190.377365 
	C177.990372,187.685165 177.676254,185.511230 177.230331,182.425232 
	C176.378433,183.606476 176.011200,184.115692 175.614639,184.665573 
	C173.598160,180.581406 166.369492,178.880539 169.802063,172.027206 
z"/>
<path fill="#EDD9D5" opacity="1.000000" stroke="none" 
	d="
M154.057983,197.906433 
	C153.575882,196.529053 153.261673,195.461288 152.930374,194.335449 
	C160.623901,193.738525 165.557587,197.997208 170.069809,202.994949 
	C164.828094,206.355377 160.058105,204.935074 154.057983,197.906433 
z"/>
<path fill="#EDD9D5" opacity="1.000000" stroke="none" 
	d="
M157.381012,174.425674 
	C156.168777,177.262909 154.956528,180.100159 153.744278,182.937408 
	C153.289215,182.735291 152.834137,182.533188 152.379059,182.331085 
	C153.659317,179.627075 154.939560,176.923080 156.635651,174.150604 
	C157.051514,174.082123 157.381027,174.425674 157.381012,174.425674 
z"/>
<path fill="#EDD9D5" opacity="1.000000" stroke="none" 
	d="
M156.886902,173.910217 
	C157.439423,172.880081 158.156570,172.021835 158.873718,171.163589 
	C159.161301,171.412659 159.448898,171.661728 159.736481,171.910782 
	C159.130096,172.654037 158.523697,173.397293 157.649170,174.283112 
	C157.381027,174.425674 157.051514,174.082123 156.886902,173.910217 
z"/>
<path fill="#EDE4E4" opacity="1.000000" stroke="none" 
	d="
M122.814087,174.167343 
	C122.498878,171.465942 122.202362,168.762177 121.861122,166.064072 
	C121.670639,164.557877 121.405830,163.061111 121.188354,161.649872 
	C132.718475,161.556122 144.887817,185.250381 139.319916,199.984177 
	C140.750488,193.972000 136.029556,192.258392 132.837097,189.289337 
	C130.204025,186.840530 128.206238,183.708649 125.908249,180.485474 
	C125.889572,180.091492 126.031013,179.977448 126.300369,180.127930 
	C127.510727,180.921082 128.451736,181.563721 129.392731,182.206375 
	C129.713593,181.904358 130.034454,181.602325 130.355316,181.300293 
	C128.247375,177.806122 126.139427,174.311951 123.362701,169.709213 
	C123.167252,172.062881 123.087006,173.029221 122.958824,174.038773 
	C122.910889,174.081970 122.814087,174.167343 122.814087,174.167343 
z"/>
<path fill="#EDD9D5" opacity="1.000000" stroke="none" 
	d="
M122.792694,188.230850 
	C118.315491,186.294250 116.667923,182.302536 115.015007,178.314697 
	C115.538467,177.938690 116.061928,177.562668 116.585388,177.186661 
	C118.718079,180.515717 120.850777,183.844788 122.981766,187.605179 
	C122.980064,188.036514 122.792694,188.230850 122.792694,188.230850 
z"/>
<path fill="#EDE4E4" opacity="1.000000" stroke="none" 
	d="
M124.695755,178.259003 
	C124.101494,177.110382 123.507233,175.961777 122.863533,174.490250 
	C122.814087,174.167343 122.910889,174.081970 123.248779,174.211090 
	C124.063622,175.556442 124.540565,176.772675 124.937592,178.057037 
	C124.857666,178.125183 124.695755,178.259003 124.695755,178.259003 
z"/>
<path fill="#EDD9D5" opacity="1.000000" stroke="none" 
	d="
M114.869560,174.583801 
	C114.527328,174.698471 114.200989,174.597443 113.874649,174.496399 
	C114.052765,174.191193 114.230881,173.885971 114.409004,173.580750 
	C114.567825,173.843201 114.726639,174.105667 114.869560,174.583801 
z"/>
<path fill="#EDE4E4" opacity="1.000000" stroke="none" 
	d="
M125.818932,180.148590 
	C125.455025,179.733383 125.161751,179.261063 124.782120,178.523865 
	C124.695755,178.259003 124.857666,178.125183 125.158844,178.244873 
	C125.650352,178.902176 125.840683,179.439819 126.031013,179.977448 
	C126.031013,179.977448 125.889572,180.091492 125.818932,180.148590 
z"/>
<path fill="#EDD9D5" opacity="1.000000" stroke="none" 
	d="
M123.977646,189.027924 
	C123.636200,188.993591 123.347511,188.851822 122.952133,188.416733 
	C122.792694,188.230850 122.980064,188.036514 123.077332,187.940277 
	C123.451180,188.022308 123.671150,188.254257 123.915283,188.772446 
	C123.996040,189.005005 123.977646,189.027924 123.977646,189.027924 
z"/>
<path fill="#EDD9D5" opacity="1.000000" stroke="none" 
	d="
M124.006546,188.996155 
	C124.017044,188.987305 124.344452,189.253632 124.344452,189.253632 
	C124.344452,189.253632 124.046638,189.240601 124.012146,189.134262 
	C123.977646,189.027924 123.996040,189.005005 124.006546,188.996155 
z"/>
<path fill="#EDD9D5" opacity="1.000000" stroke="none" 
	d="
M118.428726,139.481750 
	C117.193161,136.410919 116.103256,133.633133 114.652397,129.935379 
	C125.652817,133.302704 125.774261,135.687805 122.915825,146.243896 
	C120.793671,145.120651 118.650223,143.986130 116.685669,142.946289 
	C117.290413,141.930817 117.932404,140.852814 118.428726,139.481750 
z"/>
<path fill="#EDD9D5" opacity="1.000000" stroke="none" 
	d="
M131.753143,130.839081 
	C132.093170,131.324860 132.266525,131.593597 132.711182,131.939606 
	C132.920349,133.987381 132.920349,135.917801 132.920349,137.848221 
	C132.526581,137.991287 132.132797,138.134369 131.739029,138.277451 
	C130.139633,134.833694 128.540222,131.389938 126.946091,127.496201 
	C126.951363,127.046211 127.113098,126.853439 127.113098,126.853439 
	C127.504326,126.918472 127.895546,126.983505 128.576523,127.109528 
	C129.032227,127.437546 129.236816,127.670647 129.672516,128.001663 
	C130.026382,128.412643 130.235962,128.649109 130.701843,128.956360 
	C131.114761,129.600601 131.319550,130.131363 131.753143,130.839081 
z"/>
<path fill="#EDD9D5" opacity="1.000000" stroke="none" 
	d="
M126.869537,127.141785 
	C126.303757,126.973694 125.819794,126.710030 125.167572,126.223602 
	C124.999321,126.000847 124.989609,126.013084 124.989609,126.013084 
	C125.553596,126.157967 126.117577,126.302841 126.897331,126.650581 
	C127.113098,126.853439 126.951363,127.046211 126.869537,127.141785 
z"/>
<path fill="#EDD9D5" opacity="1.000000" stroke="none" 
	d="
M133.537552,140.455475 
	C133.560638,140.500168 133.514465,140.410782 133.537552,140.455475 
z"/>
<path fill="#EDD9D5" opacity="1.000000" stroke="none" 
	d="
M125.004730,125.996643 
	C125.010132,125.992439 124.617485,125.747032 124.617485,125.747032 
	C124.617485,125.747032 124.934319,125.771866 124.961960,125.892471 
	C124.989609,126.013084 124.999321,126.000847 125.004730,125.996643 
z"/>
<path fill="#EDD9D5" opacity="1.000000" stroke="none" 
	d="
M122.526337,124.514969 
	C122.502136,124.522552 122.550545,124.507378 122.526337,124.514969 
z"/>
<path fill="#EDD9D5" opacity="1.000000" stroke="none" 
	d="
M202.996384,157.020630 
	C206.984497,158.367752 207.883072,161.499313 205.142792,166.682983 
	C203.760574,165.803589 202.958801,164.857376 202.245026,164.014999 
	C200.776566,165.419876 199.421509,166.716278 198.066452,168.012695 
	C199.686584,164.559052 201.306686,161.105408 202.980255,157.309387 
	C203.033707,156.967010 203.021988,157.017410 202.996384,157.020630 
z"/>
<path fill="#EDE4E4" opacity="1.000000" stroke="none" 
	d="
M198.045654,168.368530 
	C199.421509,166.716278 200.776566,165.419876 202.245026,164.014999 
	C202.958801,164.857376 203.760574,165.803589 204.846954,166.904236 
	C204.145676,168.167282 203.232712,169.352966 202.159164,170.368973 
	C199.682938,172.712509 198.437195,171.703629 198.045654,168.368530 
z"/>
<path fill="#EFA695" opacity="1.000000" stroke="none" 
	d="
M126.783401,300.474182 
	C126.838531,299.799591 127.088730,299.303925 127.338928,298.808228 
	C127.719131,299.195099 128.099335,299.581970 128.479538,299.968842 
	C127.979187,300.196930 127.478828,300.425018 126.783401,300.474182 
z"/>
<path fill="#EEC5BB" opacity="1.000000" stroke="none" 
	d="
M126.300369,180.127930 
	C125.840683,179.439819 125.650352,178.902176 125.238770,178.176727 
	C124.540565,176.772675 124.063622,175.556442 123.296722,174.167908 
	C123.087006,173.029221 123.167252,172.062881 123.362701,169.709213 
	C126.139427,174.311951 128.247375,177.806122 130.355316,181.300293 
	C130.034454,181.602325 129.713593,181.904358 129.392731,182.206375 
	C128.451736,181.563721 127.510727,180.921082 126.300369,180.127930 
z"/>
</svg>