<svg version="1.1" id="Layer_1" xmlns="http://www.w3.org/2000/svg" xmlns:xlink="http://www.w3.org/1999/xlink" x="0px" y="0px"
	 width="100%" viewBox="0 0 486 428" enable-background="new 0 0 486 428" xml:space="preserve">
<path fill="#000000" opacity="1.000000" stroke="none" 
	d="
M309.000000,429.000000 
	C206.000000,429.000000 103.500000,429.000000 1.000000,429.000000 
	C1.000000,286.333344 1.000000,143.666672 1.000000,1.000000 
	C163.000000,1.000000 325.000000,1.000000 487.000000,1.000000 
	C487.000000,143.666672 487.000000,286.333344 487.000000,429.000000 
	C427.833344,429.000000 368.666656,429.000000 309.000000,429.000000 
M314.801300,68.347931 
	C313.881409,67.875961 312.961517,67.403999 311.998077,66.985703 
	C311.998077,66.985703 312.059143,66.953781 311.738037,66.328140 
	C309.171997,65.184944 306.605927,64.041748 303.655914,62.299957 
	C288.190613,55.338436 272.184082,50.494598 254.588333,49.275181 
	C251.513382,48.878578 248.443619,48.211117 245.362213,48.152317 
	C241.295654,48.074715 237.210983,48.366199 233.150986,48.702728 
	C229.787811,48.981506 226.449081,49.555443 222.617477,49.473064 
	C205.302582,51.841618 188.602493,56.411964 173.345612,65.027473 
	C164.608490,69.961296 155.942703,75.354439 148.285431,81.780754 
	C139.313080,89.310745 130.994324,97.775124 123.322128,106.639206 
	C118.854515,111.800865 116.590279,118.801651 112.663902,124.513885 
	C104.535347,136.339554 100.805336,149.746567 97.703011,163.428391 
	C96.378212,169.270996 95.361824,175.183533 94.045601,181.972763 
	C94.078423,189.978180 94.111244,197.983612 93.899033,206.556946 
	C92.911201,208.996384 91.923378,211.435837 90.334816,214.221481 
	C86.934471,219.917206 83.501717,225.594147 80.176529,231.333405 
	C79.779823,232.018112 79.969131,233.042343 79.278648,234.250366 
	C75.094162,242.086929 69.107483,248.977295 67.399101,258.111359 
	C66.109848,265.004486 69.064552,272.448425 75.192467,275.601898 
	C79.218849,277.673920 83.441528,279.367004 87.590164,281.198364 
	C93.440315,283.780914 98.647537,286.970276 99.361153,294.423767 
	C99.575310,296.205719 99.960594,297.986176 99.975929,299.769836 
	C100.076958,311.523163 100.098320,323.277191 100.207947,335.576996 
	C100.480461,336.041260 100.752975,336.505554 100.970352,336.960297 
	C100.970352,336.960297 100.973953,337.016144 100.556953,337.100769 
	C100.462746,337.204803 100.275337,337.385223 100.288490,337.401276 
	C100.450272,337.598694 100.641388,337.772034 100.965820,338.729126 
	C104.440231,352.350739 112.939331,360.926605 126.710663,363.958923 
	C138.597336,366.576233 149.581604,361.630798 159.839081,357.504303 
	C170.254242,353.314362 177.151123,359.798492 179.037231,369.848999 
	C179.024597,378.574463 178.963379,387.300323 179.041840,396.024963 
	C179.056854,397.694733 179.622055,399.359558 180.072601,401.494232 
	C180.072601,401.494232 180.221466,401.958832 180.092743,402.680206 
	C182.368637,408.007812 186.832260,411.341156 191.946121,409.788818 
	C197.897217,407.982391 203.406998,404.722137 209.751190,401.750244 
	C213.654510,400.086121 217.604050,398.520996 221.446426,396.726379 
	C224.481949,395.308563 227.341965,393.518982 230.355820,392.050201 
	C241.542374,386.598328 252.760330,381.210907 264.696716,375.902252 
	C270.812714,372.933746 276.928680,369.965210 283.707306,366.957458 
	C284.799286,366.300598 285.891266,365.643738 287.001221,365.000000 
	C287.001221,365.000000 286.988770,364.981323 287.723267,364.920990 
	C293.153015,362.351135 298.582794,359.781311 304.726593,357.024597 
	C311.529755,353.062378 318.332886,349.100189 325.803528,344.953735 
	C327.545776,342.460052 330.299500,340.162628 330.829102,337.433624 
	C332.105499,330.855865 332.246002,324.064758 333.045654,317.383759 
	C333.348633,314.852692 334.203827,312.387695 334.933624,309.866211 
	C334.933624,309.866211 334.942871,309.737579 335.384155,309.689209 
	C335.668488,309.548035 335.848785,309.323364 336.558380,308.872314 
	C337.401642,308.249298 338.244873,307.626282 339.683533,306.722076 
	C345.663605,300.094818 351.643677,293.467560 357.821899,286.412323 
	C357.821899,286.412323 358.014160,285.981659 358.640472,285.791321 
	C359.441864,284.535675 360.243256,283.280029 361.004364,281.995422 
	C361.004364,281.995422 361.023346,282.041077 361.633881,281.792969 
	C362.373718,280.506714 363.113586,279.220490 363.928467,277.917969 
	C363.928467,277.917969 363.910950,277.843201 364.545258,277.609619 
	C367.242645,273.272400 370.068756,269.009247 372.613190,264.584106 
	C380.171539,251.438751 384.768433,237.171661 387.610291,222.382660 
	C388.700256,216.710510 388.461151,210.782990 388.957733,204.053452 
	C388.918365,199.691284 388.878998,195.329117 388.967285,190.198563 
	C388.314575,184.375626 387.189362,178.559311 387.107635,172.728378 
	C386.938232,160.640106 381.961243,149.831604 377.728241,139.085312 
	C372.922668,126.885353 365.940033,115.639084 357.730164,105.100471 
	C347.201965,91.585938 334.932892,80.419212 319.793396,71.343193 
	C318.205261,70.548157 316.617096,69.753120 315.000000,69.000000 
	C315.000000,69.000000 315.031372,68.959854 314.801300,68.347931 
z"/>
<path fill="#1CB972" opacity="1.000000" stroke="none" 
	d="
M179.176956,368.897217 
	C177.151123,359.798492 170.254242,353.314362 159.839081,357.504303 
	C149.581604,361.630798 138.597336,366.576233 126.710663,363.958923 
	C112.939331,360.926605 104.440231,352.350739 100.944359,338.108856 
	C100.922897,337.488586 100.973953,337.016144 100.973953,337.016144 
	C100.973953,337.016144 100.970352,336.960297 101.214264,336.712585 
	C101.669197,335.603210 101.880219,334.741608 102.278023,333.527649 
	C102.642586,326.071899 102.965073,318.968109 102.943848,311.865295 
	C102.931137,307.610535 102.380997,303.357391 102.048843,298.715942 
	C101.641396,296.885406 101.257515,295.442474 100.642609,293.995941 
	C100.411591,293.992371 99.951248,293.951965 99.951248,293.951965 
	C98.647537,286.970276 93.440315,283.780914 87.590164,281.198364 
	C83.441528,279.367004 79.218849,277.673920 75.192467,275.601898 
	C69.064552,272.448425 66.109848,265.004486 67.399101,258.111359 
	C69.107483,248.977295 75.094162,242.086929 79.862610,233.900818 
	C83.942894,226.992615 87.439224,220.433960 90.935547,213.875290 
	C91.923378,211.435837 92.911201,208.996384 94.307343,206.278839 
	C95.068703,205.706314 95.726685,205.415405 95.730141,205.116913 
	C95.814072,197.867157 95.878136,190.615936 95.782303,183.367126 
	C95.772064,182.592697 94.755196,181.831573 94.205292,181.064285 
	C95.361824,175.183533 96.378212,169.270996 97.703011,163.428391 
	C100.805336,149.746567 104.535347,136.339554 112.663902,124.513885 
	C116.590279,118.801651 118.854515,111.800865 123.322128,106.639206 
	C130.994324,97.775124 139.313080,89.310745 148.285431,81.780754 
	C155.942703,75.354439 164.608490,69.961296 173.345612,65.027473 
	C188.602493,56.411964 205.302582,51.841618 223.177292,49.953781 
	C225.023712,50.609333 226.316467,50.971046 227.595963,50.929062 
	C236.763641,50.628254 245.928619,50.245342 255.094467,49.888512 
	C272.184082,50.494598 288.190613,55.338436 304.026978,62.894226 
	C306.951752,64.643593 309.505432,65.798691 312.059143,66.953781 
	C312.059143,66.953781 311.998077,66.985703 312.134857,67.265854 
	C313.191559,68.017281 314.111450,68.488564 315.031372,68.959854 
	C315.031372,68.959854 315.000000,69.000000 315.193176,69.262924 
	C316.963898,70.333992 318.541473,71.142136 320.119049,71.950272 
	C334.932892,80.419212 347.201965,91.585938 357.730164,105.100471 
	C365.940033,115.639084 372.922668,126.885353 377.728241,139.085312 
	C381.961243,149.831604 386.938232,160.640106 387.107635,172.728378 
	C387.189362,178.559311 388.314575,184.375626 388.584595,190.493393 
	C385.764587,188.356110 383.349121,185.901627 380.886169,183.495712 
	C369.019226,171.903458 357.158630,160.304504 345.240387,148.765167 
	C343.719696,147.292831 341.874451,146.155731 340.063049,144.540054 
	C338.759033,142.472580 337.810211,140.468369 336.296753,139.079422 
	C335.353668,138.213943 333.557343,138.278259 331.978516,137.626373 
	C329.397339,134.554642 327.054138,131.714325 324.550629,129.023178 
	C319.443512,123.533325 314.978851,117.051498 308.920471,112.933731 
	C299.943359,106.832130 291.532043,99.425896 280.505585,96.677452 
	C272.292419,94.630249 264.188446,92.144745 255.817200,89.542213 
	C254.721313,88.837120 253.846146,88.109047 252.966537,88.103638 
	C244.863571,88.053810 236.747208,87.883240 228.662949,88.297615 
	C225.728699,88.448021 222.870529,90.082489 219.589539,91.028618 
	C215.124222,92.374580 210.991867,93.586922 206.979568,95.114609 
	C191.627945,100.959770 177.812195,109.032913 166.245392,121.066414 
	C153.767899,134.047348 144.513107,148.596283 139.352676,165.945816 
	C135.932800,177.443573 133.794083,188.978485 133.976318,201.264038 
	C133.084610,211.213943 135.973099,220.278610 138.491959,229.368820 
	C138.973251,231.105789 140.692337,232.499802 141.904724,234.425919 
	C142.463791,236.166733 142.828110,237.598770 143.473129,238.890625 
	C150.550629,253.065323 159.644669,265.811249 171.398682,276.448334 
	C175.534927,280.191528 180.588150,282.921417 185.148499,286.411407 
	C184.983963,287.106171 184.893585,287.503540 184.729111,288.041016 
	C184.570267,288.510223 184.657822,288.792297 184.920425,289.044617 
	C184.923157,289.061890 184.926086,289.098602 185.117737,289.368652 
	C186.512115,291.012543 187.638489,292.463043 188.928879,293.748962 
	C213.979401,318.712036 239.051804,343.653107 264.105835,368.612640 
	C265.225098,369.727661 266.213226,370.974274 267.195496,372.084015 
	C265.881317,373.596100 264.923920,374.697693 263.966492,375.799255 
	C252.760330,381.210907 241.542374,386.598328 230.355820,392.050201 
	C227.341965,393.518982 224.481949,395.308563 221.446426,396.726379 
	C217.604050,398.520996 213.654510,400.086121 209.033295,401.922424 
	C204.610352,403.372162 200.826843,404.461487 197.216522,405.966309 
	C189.684814,409.105652 186.255875,408.345245 180.914993,401.463898 
	C180.954758,398.544037 181.047638,396.081329 180.960831,393.625000 
	C180.719269,386.789490 180.403076,379.956573 180.077118,372.761353 
	C179.750885,371.232452 179.463928,370.064850 179.176956,368.897217 
z"/>
<path fill="#169E60" opacity="1.000000" stroke="none" 
	d="
M340.179565,144.863342 
	C341.874451,146.155731 343.719696,147.292831 345.240387,148.765167 
	C357.158630,160.304504 369.019226,171.903458 380.886169,183.495712 
	C383.349121,185.901627 385.764587,188.356110 388.520782,190.877594 
	C388.878998,195.329117 388.918365,199.691284 388.583344,204.725159 
	C386.974274,211.331726 385.486206,217.227112 384.554779,223.209198 
	C382.227203,238.158005 376.897949,252.031769 370.080566,265.420624 
	C367.982788,269.540497 365.965240,273.701202 363.910950,277.843201 
	C363.910950,277.843201 363.928467,277.917969 363.590515,278.051392 
	C362.509460,279.470215 361.766418,280.755646 361.023376,282.041077 
	C361.023346,282.041077 361.004364,281.995422 360.690063,282.091095 
	C359.588562,283.451721 358.801361,284.716675 358.014160,285.981659 
	C358.014160,285.981659 357.821899,286.412323 357.388458,286.678802 
	C350.680511,293.170898 344.402039,299.392548 338.180206,305.670380 
	C338.108002,305.743195 338.769226,306.542877 339.088104,307.003296 
	C338.244873,307.626282 337.401642,308.249298 336.050323,309.022217 
	C335.298187,309.313629 335.098389,309.502106 334.942871,309.737579 
	C334.942871,309.737579 334.933624,309.866211 334.496246,309.935455 
	C333.031860,311.831512 331.093719,313.675781 331.128296,315.482330 
	C331.326721,325.856110 330.693420,335.964966 325.136047,345.138000 
	C318.332886,349.100189 311.529755,353.062378 304.111084,356.902527 
	C297.067657,357.650879 291.241913,359.733398 286.988770,364.981323 
	C286.988770,364.981323 287.001221,365.000000 286.637268,364.983398 
	C285.197083,365.643433 284.120880,366.320038 283.044678,366.996674 
	C276.928680,369.965210 270.812714,372.933746 264.331604,375.850769 
	C264.923920,374.697693 265.881317,373.596100 267.195496,372.084015 
	C266.213226,370.974274 265.225098,369.727661 264.105835,368.612640 
	C239.051804,343.653107 213.979401,318.712036 188.928879,293.748962 
	C187.638489,292.463043 186.512115,291.012543 185.502899,289.371399 
	C188.148087,289.692535 190.599731,290.280945 193.083817,290.868958 
	C193.116257,290.868591 193.115662,290.933472 193.303406,291.127228 
	C193.996338,291.513062 194.501495,291.705170 195.054535,291.913757 
	C195.102386,291.930267 195.070786,292.026459 195.170013,292.344482 
	C199.527466,294.443970 203.785675,296.225403 208.358688,298.041626 
	C209.091461,298.132446 209.509415,298.188507 210.111481,298.539307 
	C215.860275,299.979462 221.424988,301.124847 227.248871,302.201752 
	C227.683304,302.098419 227.858582,302.063568 228.265427,302.037567 
	C228.496979,302.046417 228.960175,302.031647 229.204468,302.081116 
	C229.448776,302.130615 229.928482,302.266235 230.156906,302.568298 
	C231.118729,303.214874 231.875305,303.900787 232.582077,303.852844 
	C243.775528,303.093323 255.251495,303.512634 266.071625,301.057159 
	C277.374664,298.492065 288.045105,293.139374 298.996033,289.002655 
	C299.000000,289.000000 299.005615,288.991669 299.349945,288.995178 
	C301.123657,288.998688 302.553009,288.998688 304.684326,288.998688 
	C303.747986,287.712860 303.194183,286.952332 302.802490,286.414429 
	C304.263184,285.136017 305.601440,283.964783 307.215027,282.672028 
	C308.826874,281.914856 310.479797,281.586761 311.446869,280.592010 
	C316.505310,275.388794 321.427307,270.050018 326.260620,264.636841 
	C326.631805,264.221130 325.950775,262.865875 325.941620,261.658936 
	C327.497345,259.575348 328.870239,257.780090 330.393799,255.854553 
	C330.738007,255.538544 330.892365,255.324554 331.001923,255.048904 
	C330.996338,255.015518 331.063873,255.010834 331.357086,254.876221 
	C332.085480,253.809341 332.520660,252.877090 332.970673,251.974548 
	C332.985474,252.004242 332.942810,251.950104 333.271118,251.876434 
	C337.328186,249.644440 338.889343,246.165314 340.548492,242.276062 
	C348.405121,223.859268 351.986969,204.671844 349.693146,184.897232 
	C348.471344,174.364212 344.562561,164.147964 341.948395,153.768112 
	C341.210266,150.837265 340.761200,147.833603 340.179565,144.863342 
z"/>
<path fill="#058D57" opacity="1.000000" stroke="none" 
	d="
M364.228088,277.726410 
	C365.965240,273.701202 367.982788,269.540497 370.080566,265.420624 
	C376.897949,252.031769 382.227203,238.158005 384.554779,223.209198 
	C385.486206,217.227112 386.974274,211.331726 388.518311,205.184357 
	C388.461151,210.782990 388.700256,216.710510 387.610291,222.382660 
	C384.768433,237.171661 380.171539,251.438751 372.613190,264.584106 
	C370.068756,269.009247 367.242645,273.272400 364.228088,277.726410 
z"/>
<path fill="#02894E" opacity="1.000000" stroke="none" 
	d="
M325.469788,345.045868 
	C330.693420,335.964966 331.326721,325.856110 331.128296,315.482330 
	C331.093719,313.675781 333.031860,311.831512 334.433105,309.948639 
	C334.203827,312.387695 333.348633,314.852692 333.045654,317.383759 
	C332.246002,324.064758 332.105499,330.855865 330.829102,337.433624 
	C330.299500,340.162628 327.545776,342.460052 325.469788,345.045868 
z"/>
<path fill="#10A365" opacity="1.000000" stroke="none" 
	d="
M180.886093,401.923981 
	C186.255875,408.345245 189.684814,409.105652 197.216522,405.966309 
	C200.826843,404.461487 204.610352,403.372162 208.711853,402.093689 
	C203.406998,404.722137 197.897217,407.982391 191.946121,409.788818 
	C186.832260,411.341156 182.368637,408.007812 180.323456,402.315552 
	C180.554184,401.950867 180.886093,401.923981 180.886093,401.923981 
z"/>
<path fill="#018147" opacity="1.000000" stroke="none" 
	d="
M339.385803,306.862671 
	C338.769226,306.542877 338.108002,305.743195 338.180206,305.670380 
	C344.402039,299.392548 350.680511,293.170898 357.289368,286.892792 
	C351.643677,293.467560 345.663605,300.094818 339.385803,306.862671 
z"/>
<path fill="#029D5C" opacity="1.000000" stroke="none" 
	d="
M94.125443,181.518524 
	C94.755196,181.831573 95.772064,182.592697 95.782303,183.367126 
	C95.878136,190.615936 95.814072,197.867157 95.730141,205.116913 
	C95.726685,205.415405 95.068703,205.706314 94.429863,205.994888 
	C94.111244,197.983612 94.078423,189.978180 94.125443,181.518524 
z"/>
<path fill="#10A365" opacity="1.000000" stroke="none" 
	d="
M90.635185,214.048386 
	C87.439224,220.433960 83.942894,226.992615 80.166687,233.730255 
	C79.969131,233.042343 79.779823,232.018112 80.176529,231.333405 
	C83.501717,225.594147 86.934471,219.917206 90.635185,214.048386 
z"/>
<path fill="#029D5C" opacity="1.000000" stroke="none" 
	d="
M254.841400,49.581848 
	C245.928619,50.245342 236.763641,50.628254 227.595963,50.929062 
	C226.316467,50.971046 225.023712,50.609333 223.418320,50.216553 
	C226.449081,49.555443 229.787811,48.981506 233.150986,48.702728 
	C237.210983,48.366199 241.295654,48.074715 245.362213,48.152317 
	C248.443619,48.211117 251.513382,48.878578 254.841400,49.581848 
z"/>
<path fill="#029D5C" opacity="1.000000" stroke="none" 
	d="
M100.873634,293.999512 
	C101.257515,295.442474 101.641396,296.885406 102.033386,299.172852 
	C102.058075,311.304901 102.074669,322.592438 102.091255,333.879974 
	C101.880219,334.741608 101.669197,335.603210 101.241821,336.717346 
	C100.752975,336.505554 100.480461,336.041260 100.426651,334.966431 
	C100.721443,320.903778 100.797539,307.451630 100.873634,293.999512 
z"/>
<path fill="#46B783" opacity="1.000000" stroke="none" 
	d="
M100.642609,293.995941 
	C100.797539,307.451630 100.721443,320.903778 100.395508,334.693420 
	C100.098320,323.277191 100.076958,311.523163 99.975929,299.769836 
	C99.960594,297.986176 99.575310,296.205719 99.656204,294.187866 
	C99.951248,293.951965 100.411591,293.992371 100.642609,293.995941 
z"/>
<path fill="#058D57" opacity="1.000000" stroke="none" 
	d="
M287.356018,364.951172 
	C291.241913,359.733398 297.067657,357.650879 303.754089,356.995972 
	C298.582794,359.781311 293.153015,362.351135 287.356018,364.951172 
z"/>
<path fill="#54BC92" opacity="1.000000" stroke="none" 
	d="
M179.107086,369.373108 
	C179.463928,370.064850 179.750885,371.232452 180.036438,373.218140 
	C180.001160,383.032990 179.967285,392.029816 179.933411,401.026642 
	C179.622055,399.359558 179.056854,397.694733 179.041840,396.024963 
	C178.963379,387.300323 179.024597,378.574463 179.107086,369.373108 
z"/>
<path fill="#029D5C" opacity="1.000000" stroke="none" 
	d="
M180.003006,401.260437 
	C179.967285,392.029816 180.001160,383.032990 180.075714,373.579407 
	C180.403076,379.956573 180.719269,386.789490 180.960831,393.625000 
	C181.047638,396.081329 180.954758,398.544037 180.914993,401.463898 
	C180.886093,401.923981 180.554184,401.950867 180.387817,401.954834 
	C180.221466,401.958832 180.072601,401.494232 180.003006,401.260437 
z"/>
<path fill="#10A365" opacity="1.000000" stroke="none" 
	d="
M311.898590,66.640961 
	C309.505432,65.798691 306.951752,64.643593 304.218964,63.193527 
	C306.605927,64.041748 309.171997,65.184944 311.898590,66.640961 
z"/>
<path fill="#058D57" opacity="1.000000" stroke="none" 
	d="
M283.375977,366.977051 
	C284.120880,366.320038 285.197083,365.643433 286.628265,364.976868 
	C285.891266,365.643738 284.799286,366.300598 283.375977,366.977051 
z"/>
<path fill="#058D57" opacity="1.000000" stroke="none" 
	d="
M358.327301,285.886475 
	C358.801361,284.716675 359.588562,283.451721 360.710205,282.105591 
	C360.243256,283.280029 359.441864,284.535675 358.327301,285.886475 
z"/>
<path fill="#10A365" opacity="1.000000" stroke="none" 
	d="
M319.956238,71.646729 
	C318.541473,71.142136 316.963898,70.333992 315.207642,69.241974 
	C316.617096,69.753120 318.205261,70.548157 319.956238,71.646729 
z"/>
<path fill="#058D57" opacity="1.000000" stroke="none" 
	d="
M361.328613,281.917023 
	C361.766418,280.755646 362.509460,279.470215 363.552979,278.059509 
	C363.113586,279.220490 362.373718,280.506714 361.328613,281.917023 
z"/>
<path fill="#10A365" opacity="1.000000" stroke="none" 
	d="
M314.916321,68.653893 
	C314.111450,68.488564 313.191559,68.017281 312.156616,67.239014 
	C312.961517,67.403999 313.881409,67.875961 314.916321,68.653893 
z"/>
<path fill="#029D5C" opacity="1.000000" stroke="none" 
	d="
M100.765457,337.058472 
	C100.973953,337.016144 100.922897,337.488586 100.873909,337.720093 
	C100.641388,337.772034 100.450272,337.598694 100.288490,337.401276 
	C100.275337,337.385223 100.462746,337.204803 100.765457,337.058472 
z"/>
<path fill="#02894E" opacity="1.000000" stroke="none" 
	d="
M335.163513,309.713379 
	C335.098389,309.502106 335.298187,309.313629 335.733643,309.093658 
	C335.848785,309.323364 335.668488,309.548035 335.163513,309.713379 
z"/>
<path fill="#000000" opacity="1.000000" stroke="none" 
	d="
M330.243134,255.984863 
	C328.870239,257.780090 327.497345,259.575348 325.641052,261.808655 
	C319.109192,268.170959 313.060699,274.095184 306.689789,280.144165 
	C305.398499,280.871246 304.387482,281.415558 303.467224,282.084717 
	C293.393890,289.409241 282.594269,295.132812 270.355988,298.055023 
	C257.043182,301.233826 243.785828,304.504822 229.928482,302.266235 
	C229.928482,302.266235 229.448776,302.130615 229.140625,301.880249 
	C228.566284,301.762848 228.300079,301.895782 228.033875,302.028717 
	C227.858582,302.063568 227.683304,302.098419 226.864380,302.091125 
	C220.789597,300.780853 215.358490,299.512695 209.927383,298.244568 
	C209.509415,298.188507 209.091461,298.132446 208.169403,297.733215 
	C203.467148,295.602142 199.268967,293.814301 195.070786,292.026459 
	C195.070786,292.026459 195.102386,291.930267 194.953094,291.637146 
	C194.241074,291.207153 193.678375,291.070312 193.115662,290.933472 
	C193.115662,290.933472 193.116257,290.868591 192.925537,290.565979 
	C190.230774,288.880219 187.726715,287.497131 185.222672,286.114014 
	C180.588150,282.921417 175.534927,280.191528 171.398682,276.448334 
	C159.644669,265.811249 150.550629,253.065323 143.473129,238.890625 
	C142.828110,237.598770 142.463791,236.166733 141.843201,234.054474 
	C140.129654,227.069809 138.465820,220.848587 136.979950,214.585114 
	C135.909607,210.073303 135.076385,205.505234 134.137405,200.962265 
	C133.794083,188.978485 135.932800,177.443573 139.352676,165.945816 
	C144.513107,148.596283 153.767899,134.047348 166.245392,121.066414 
	C177.812195,109.032913 191.627945,100.959770 206.979568,95.114609 
	C210.991867,93.586922 215.124222,92.374580 219.794861,91.343552 
	C226.510010,91.118637 232.622375,90.387512 238.756165,90.068901 
	C244.504272,89.770332 250.275055,89.908470 256.035858,89.854431 
	C264.188446,92.144745 272.292419,94.630249 280.505585,96.677452 
	C291.532043,99.425896 299.943359,106.832130 308.920471,112.933731 
	C314.978851,117.051498 319.443512,123.533325 324.550629,129.023178 
	C327.054138,131.714325 329.397339,134.554642 332.031616,137.986267 
	C333.188873,140.923141 333.764008,143.451416 335.129425,145.435944 
	C341.025818,154.005829 343.854950,163.806473 345.864075,173.704041 
	C348.709320,187.720627 349.539093,202.011841 345.865906,216.034607 
	C343.371552,225.557098 340.013947,234.861084 336.832581,244.191254 
	C335.907532,246.904221 334.259460,249.370667 332.942810,251.950104 
	C332.942810,251.950104 332.985474,252.004242 332.680969,251.977234 
	C331.938904,252.970444 331.501373,253.990631 331.063843,255.010834 
	C331.063873,255.010834 330.996338,255.015518 330.791168,255.116653 
	C330.296356,255.395050 330.182068,255.650726 330.243134,255.984863 
M301.585815,200.970993 
	C301.750214,200.664047 301.914612,200.357117 302.022583,200.011703 
	C302.022583,200.011703 302.042236,200.077148 302.583588,199.972351 
	C302.766113,199.668533 302.948639,199.364731 303.632538,198.808670 
	C304.111328,198.244446 304.590149,197.680222 305.586212,196.961472 
	C305.748657,196.655273 305.911072,196.349091 306.008453,196.017853 
	C306.008453,196.017853 306.049194,196.074432 306.584869,195.970993 
	C306.747833,195.663742 306.910797,195.356506 307.009644,195.011414 
	C307.009644,195.011414 307.050659,195.073547 307.586334,194.970154 
	C307.749603,194.662933 307.912872,194.355713 308.014496,194.011673 
	C308.014496,194.011673 308.048126,194.075104 308.581543,193.966827 
	C308.750031,193.661606 308.918518,193.356369 309.022400,193.025482 
	C309.022400,193.025482 309.051819,193.088455 309.594788,192.984833 
	C309.759460,192.673309 309.924133,192.361771 310.043427,192.088821 
	C310.043427,192.088821 310.102997,192.084045 310.674530,191.918579 
	C311.139801,191.303925 311.605103,190.689270 312.051575,190.004852 
	C312.051575,190.004852 312.047150,190.074936 312.564728,189.944595 
	C312.731415,189.645554 312.898071,189.346497 313.004486,189.006165 
	C313.004486,189.006165 313.047089,189.065567 313.577698,188.958984 
	C313.741943,188.654770 313.906189,188.350555 314.075897,188.040253 
	C314.075897,188.040253 314.093536,188.053177 314.755096,187.807373 
	C314.844269,186.181885 314.933472,184.556412 314.844360,182.490417 
	C314.655121,182.211533 314.394257,182.044449 313.720367,181.347900 
	C311.828644,182.240067 309.936951,183.132233 308.002930,183.996552 
	C308.002930,183.996552 308.022797,184.043076 307.432831,184.160263 
	C306.941162,184.769501 306.449493,185.378723 305.495544,186.167236 
	C305.205383,186.370316 305.041687,186.647949 304.511932,187.113449 
	C304.409454,187.403793 304.307007,187.694138 304.045563,188.461136 
	C304.011505,188.625122 303.977417,188.789093 303.268463,189.023468 
	C301.801453,190.346313 300.334442,191.669174 298.436371,193.119308 
	C298.161041,193.293533 298.012787,193.543198 297.381622,194.135956 
	C295.757660,195.832474 294.133698,197.529007 292.284027,199.283142 
	C292.284027,199.283142 292.225769,199.508652 291.741119,199.860748 
	C290.824890,200.898239 289.908661,201.935715 288.438141,203.197845 
	C287.956543,203.813110 287.474915,204.428391 286.499573,205.156586 
	C286.350128,205.444214 286.200684,205.731842 285.437775,206.271927 
	C284.320343,207.588913 283.202942,208.905899 281.384613,209.993454 
	C280.260803,210.398605 279.136963,210.803757 277.556488,211.074036 
	C277.556488,211.074036 277.088959,210.983627 276.948761,210.440094 
	C276.634308,210.261688 276.319824,210.083267 276.034424,209.981766 
	C276.034424,209.981766 276.111206,209.952393 276.045868,209.186188 
	C276.727661,207.145691 277.409454,205.105179 278.044647,203.020355 
	C278.044647,203.020355 278.017731,203.078735 278.560516,202.953812 
	C278.733612,202.641602 278.906708,202.329391 279.012848,202.013153 
	C279.012848,202.013153 279.017883,202.080002 279.560974,201.954514 
	C279.733765,201.641876 279.906555,201.329239 280.019989,201.039185 
	C280.019989,201.039185 280.072388,201.075119 280.692780,200.862900 
	C282.145020,199.263306 283.597229,197.663727 285.038239,196.005493 
	C285.038239,196.005493 285.023834,196.062241 285.563507,195.952026 
	C285.731171,195.642548 285.898834,195.333084 286.008270,195.007111 
	C286.008270,195.007111 286.023865,195.065628 286.561310,194.947296 
	C286.731354,194.638443 286.901398,194.329590 287.009796,194.009598 
	C287.009796,194.009598 287.020874,194.071243 287.564606,193.955627 
	C287.734894,193.643417 287.905212,193.331223 288.011383,193.010910 
	C288.011383,193.010910 288.018860,193.075119 288.564575,192.955994 
	C288.737030,192.642548 288.909485,192.329102 289.013306,192.013489 
	C289.013306,192.013489 289.016266,192.082092 289.562195,191.960037 
	C289.733459,191.645905 289.904694,191.331757 290.011200,191.011063 
	C290.011200,191.011063 290.018890,191.075668 290.558136,190.949844 
	C290.729706,190.639236 290.901306,190.328644 291.009613,190.009735 
	C291.009613,190.009735 291.019012,190.072861 291.558594,189.949387 
	C291.730255,189.638977 291.901917,189.328568 292.010010,189.009949 
	C292.010010,189.009949 292.018738,189.073441 292.559631,188.949463 
	C292.731995,188.638199 292.904388,188.326935 293.010590,188.010513 
	C293.010590,188.010513 293.015717,188.076706 293.558899,187.953278 
	C293.730865,187.640778 293.902863,187.328262 294.009613,187.010208 
	C294.009613,187.010208 294.016937,187.075256 294.556458,186.951294 
	C294.727264,186.640854 294.898041,186.330429 295.008026,186.008560 
	C295.008026,186.008560 295.020996,186.069061 295.558197,185.948181 
	C295.727936,185.639267 295.897675,185.330353 296.007690,185.008331 
	C296.007690,185.008331 296.022858,185.067566 296.558044,184.946655 
	C296.726990,184.638733 296.895935,184.330795 297.008545,184.043213 
	C297.008545,184.043213 297.067871,184.053833 297.701721,183.833359 
	C299.787231,181.750732 301.848724,179.643341 303.965912,177.593445 
	C305.599365,176.011902 307.340149,174.078262 304.684540,172.460052 
	C303.133820,171.515106 300.315918,171.338806 298.708496,172.125351 
	C296.638336,173.138336 295.209595,175.462051 293.274384,177.282349 
	C293.274384,177.282349 293.217010,177.513489 292.770050,177.862885 
	C292.182465,178.575836 291.594879,179.288788 290.497131,180.168961 
	C290.332275,180.475159 290.167450,180.781357 289.390411,181.287674 
	C287.996246,182.868774 286.602112,184.449860 284.855042,186.631973 
	C279.253082,191.595871 273.651154,196.559784 267.805511,201.739609 
	C265.178284,197.782776 265.366852,195.049591 268.212433,192.261520 
	C276.173401,184.461456 284.036621,176.560638 291.865082,168.627182 
	C293.386993,167.084854 294.577545,165.215546 295.530823,163.996094 
	C293.024658,158.621826 289.837097,159.675690 286.776825,162.099564 
	C283.300751,164.852768 280.023438,167.860962 276.710449,170.815170 
	C267.235504,179.263901 258.250641,188.348541 248.197906,196.039078 
	C237.882645,203.930435 234.913666,213.904541 238.366180,225.376801 
	C240.180267,231.404785 238.344727,234.833771 234.850021,238.585480 
	C233.324509,240.223160 231.627548,241.701141 229.494064,243.154495 
	C229.310913,243.436493 229.127747,243.718475 228.381256,244.213806 
	C227.584930,245.101578 226.788620,245.989365 225.281677,246.949020 
	C221.833694,250.289627 218.385727,253.630234 214.994339,256.991791 
	C214.994339,256.991791 214.970337,256.936401 214.390121,257.166260 
	C213.577774,258.094086 212.765427,259.021881 211.988556,260.000702 
	C211.988556,260.000702 211.976746,259.940033 211.433563,260.036102 
	C211.270447,260.346497 211.107330,260.656891 210.983032,260.944733 
	C210.983032,260.944733 210.935867,260.943146 210.229797,260.955902 
	C206.316971,264.632812 202.345581,268.249817 198.506058,272.001740 
	C193.644150,276.752747 194.045944,278.372131 200.569534,280.819672 
	C201.309036,281.097137 202.183426,281.015076 203.398224,281.733002 
	C212.663498,286.706177 219.489883,282.912445 225.685318,275.844635 
	C232.442902,268.135498 239.311462,260.505096 246.484940,253.186630 
	C250.301941,249.292511 253.788330,245.203079 261.061279,247.710068 
	C272.624329,251.695847 282.307098,247.418457 290.112640,238.044083 
	C298.274323,228.242004 306.861053,218.792801 315.304840,209.227158 
	C318.516083,205.589233 322.090607,202.239990 324.993591,198.378784 
	C326.044617,196.980865 325.618469,194.472336 325.866333,192.470581 
	C323.578217,192.822327 320.810211,192.489349 319.110474,193.680603 
	C316.314880,195.639938 314.211304,198.586716 311.138641,201.017242 
	C307.054657,204.991577 302.970703,208.965897 298.954712,212.947357 
	C298.954712,212.947357 298.952423,212.879028 298.410309,213.017609 
	C298.234253,213.331161 298.058197,213.644714 297.958191,213.958328 
	C297.958191,213.958328 297.957489,213.882263 297.415558,214.021378 
	C297.238129,214.334412 297.060699,214.647446 296.960052,214.960648 
	C296.960052,214.960648 296.959534,214.883850 296.415985,215.022263 
	C296.239349,215.336563 296.062744,215.650848 295.964935,215.965393 
	C295.964935,215.965393 295.964600,215.886566 295.420258,216.021255 
	C295.240692,216.334091 295.061157,216.646927 294.959564,216.960068 
	C294.959564,216.960068 294.959229,216.882095 294.417450,217.021881 
	C294.238464,217.334366 294.059479,217.646835 293.958984,217.959656 
	C293.958984,217.959656 293.958588,217.881180 293.416321,218.020538 
	C293.237427,218.333267 293.058533,218.645996 292.958130,218.958878 
	C292.958130,218.958878 292.957581,218.880386 292.414093,219.021393 
	C292.237915,219.336288 292.061707,219.651169 291.974152,219.965500 
	C291.974152,219.965500 291.973083,219.876846 291.262085,219.951324 
	C289.753754,220.025726 288.245392,220.100128 286.192719,219.693115 
	C285.388794,214.166763 290.481598,212.445602 293.578949,208.981216 
	C293.743378,208.669983 293.907776,208.358734 294.005951,208.013718 
	C294.005951,208.013718 294.051971,208.072189 294.587280,207.970963 
	C294.748322,207.663971 294.909393,207.356979 295.091553,207.080139 
	C295.091553,207.080139 295.122223,207.059723 295.737946,206.857193 
	C297.176331,205.277390 298.614685,203.697571 300.076813,202.090805 
	C300.076813,202.090805 300.054077,202.063034 300.585175,201.964035 
	C300.747406,201.659729 300.909607,201.355408 301.010437,201.006668 
	C301.010437,201.006668 301.049957,201.071350 301.585815,200.970993 
M187.549606,212.938736 
	C187.721130,212.634048 187.892654,212.329376 188.005905,212.009308 
	C188.005905,212.009308 188.025482,212.066315 188.571396,211.963730 
	C188.737701,211.651108 188.904007,211.338486 189.010727,211.010483 
	C189.010727,211.010483 189.026138,211.070053 189.578964,210.959534 
	C189.745041,210.640732 189.911118,210.321930 190.532562,209.808853 
	C190.813828,209.593094 190.962784,209.308182 191.556168,208.805847 
	C192.041626,208.201920 192.527084,207.597992 192.991943,206.991913 
	C192.991943,206.991913 192.994843,207.012375 193.620758,206.789291 
	C195.561401,204.801773 197.502060,202.814255 199.736664,200.734909 
	C199.736664,200.734909 199.828888,200.441086 200.348480,200.099731 
	C202.359192,198.942337 203.098984,195.335739 206.661514,197.174820 
	C214.797150,201.374634 222.941269,200.718414 231.696945,196.733353 
	C250.876740,186.489883 263.306305,170.635788 269.319641,149.976013 
	C271.964264,140.889755 270.274567,131.967117 263.889709,124.450859 
	C256.863068,116.179062 241.309860,115.513817 231.376007,118.900368 
	C218.369232,123.334503 207.962204,131.485489 199.084427,141.560699 
	C192.015884,149.582626 185.856445,158.336014 187.030380,170.832428 
	C191.375824,179.955887 188.103683,186.755585 180.292191,192.285812 
	C180.292191,192.285812 180.238281,192.494614 179.783051,192.840927 
	C179.180191,193.552246 178.577332,194.263550 178.000000,195.000000 
	C178.000000,195.000000 177.975616,194.972992 177.459381,195.102905 
	C177.279190,195.397400 177.098999,195.691895 176.332321,196.243774 
	C174.889786,197.795105 173.447250,199.346451 171.297058,200.958466 
	C169.030426,203.055618 166.763794,205.152771 164.294205,207.298538 
	C164.294205,207.298538 164.248230,207.502090 163.731430,207.881226 
	C160.221512,211.013474 156.494385,213.941040 153.280182,217.351959 
	C151.233063,219.524384 149.072250,222.385284 153.005478,225.877289 
	C154.424805,229.458160 155.811813,233.052277 157.271942,236.616425 
	C158.960815,240.738953 160.436691,241.108841 163.523102,237.964279 
	C167.409363,234.004822 171.135452,229.888153 175.604874,225.812027 
	C177.567368,223.791946 179.529877,221.771866 181.709976,219.700195 
	C181.709976,219.700195 181.754364,219.480988 182.269089,219.107040 
	C183.537903,217.421936 184.806732,215.736847 186.029343,214.009659 
	C186.029343,214.009659 186.022018,214.071716 186.564880,213.956116 
	C186.733521,213.644028 186.902145,213.331940 187.009369,213.008698 
	C187.009369,213.008698 187.020859,213.070053 187.549606,212.938736 
z"/>
<path fill="#0B915B" opacity="1.000000" stroke="none" 
	d="
M333.271118,251.876434 
	C334.259460,249.370667 335.907532,246.904221 336.832581,244.191254 
	C340.013947,234.861084 343.371552,225.557098 345.865906,216.034607 
	C349.539093,202.011841 348.709320,187.720627 345.864075,173.704041 
	C343.854950,163.806473 341.025818,154.005829 335.129425,145.435944 
	C333.764008,143.451416 333.188873,140.923141 332.197021,138.285187 
	C333.557343,138.278259 335.353668,138.213943 336.296753,139.079422 
	C337.810211,140.468369 338.759033,142.472580 340.063049,144.540054 
	C340.761200,147.833603 341.210266,150.837265 341.948395,153.768112 
	C344.562561,164.147964 348.471344,174.364212 349.693146,184.897232 
	C351.986969,204.671844 348.405121,223.859268 340.548492,242.276062 
	C338.889343,246.165314 337.328186,249.644440 333.271118,251.876434 
z"/>
<path fill="#10A365" opacity="1.000000" stroke="none" 
	d="
M255.817200,89.542206 
	C250.275055,89.908470 244.504272,89.770332 238.756165,90.068901 
	C232.622375,90.387512 226.510010,91.118637 220.182968,91.354744 
	C222.870529,90.082489 225.728699,88.448021 228.662949,88.297615 
	C236.747208,87.883240 244.863571,88.053810 252.966537,88.103638 
	C253.846146,88.109047 254.721313,88.837120 255.817200,89.542206 
z"/>
<path fill="#10A365" opacity="1.000000" stroke="none" 
	d="
M133.976318,201.264038 
	C135.076385,205.505234 135.909607,210.073303 136.979950,214.585114 
	C138.465820,220.848587 140.129654,227.069809 141.778839,233.680573 
	C140.692337,232.499802 138.973251,231.105789 138.491959,229.368820 
	C135.973099,220.278610 133.084610,211.213943 133.976318,201.264038 
z"/>
<path fill="#2BC07C" opacity="1.000000" stroke="none" 
	d="
M102.278030,333.527649 
	C102.074669,322.592438 102.058075,311.304901 102.056946,299.560425 
	C102.380997,303.357391 102.931137,307.610535 102.943848,311.865295 
	C102.965073,318.968109 102.642586,326.071899 102.278030,333.527649 
z"/>
<path fill="#058D57" opacity="1.000000" stroke="none" 
	d="
M185.148499,286.411407 
	C187.726715,287.497131 190.230774,288.880219 192.893097,290.566345 
	C190.599731,290.280945 188.148087,289.692535 185.311264,289.101379 
	C184.926086,289.098602 184.923157,289.061890 184.896240,288.762604 
	C184.847275,288.275879 184.825241,288.088409 184.803207,287.900909 
	C184.893585,287.503540 184.983963,287.106171 185.148499,286.411407 
z"/>
<path fill="#169E60" opacity="1.000000" stroke="none" 
	d="
M184.729111,288.041016 
	C184.825241,288.088409 184.847275,288.275879 184.893494,288.745331 
	C184.657822,288.792297 184.570267,288.510223 184.729111,288.041016 
z"/>
<path fill="#058D57" opacity="1.000000" stroke="none" 
	d="
M230.156906,302.568298 
	C243.785828,304.504822 257.043182,301.233826 270.355988,298.055023 
	C282.594269,295.132812 293.393890,289.409241 303.467224,282.084717 
	C304.387482,281.415558 305.398499,280.871246 306.688721,280.493530 
	C306.986633,281.409912 306.963196,282.101746 306.939728,282.793518 
	C305.601440,283.964783 304.263184,285.136017 302.802490,286.414429 
	C303.194183,286.952332 303.747986,287.712860 304.684326,288.998688 
	C302.553009,288.998688 301.123657,288.998688 299.325836,288.954712 
	C298.957397,288.910706 298.992096,289.005310 298.992096,289.005310 
	C288.045105,293.139374 277.374664,298.492065 266.071625,301.057159 
	C255.251495,303.512634 243.775528,303.093323 232.582077,303.852844 
	C231.875305,303.900787 231.118729,303.214874 230.156906,302.568298 
z"/>
<path fill="#0B915B" opacity="1.000000" stroke="none" 
	d="
M307.215057,282.672058 
	C306.963196,282.101746 306.986633,281.409912 307.011169,280.368774 
	C313.060699,274.095184 319.109192,268.170959 325.458252,262.097046 
	C325.950775,262.865875 326.631805,264.221130 326.260620,264.636841 
	C321.427307,270.050018 316.505310,275.388794 311.446869,280.592010 
	C310.479797,281.586761 308.826874,281.914856 307.215057,282.672058 
z"/>
<path fill="#058D57" opacity="1.000000" stroke="none" 
	d="
M210.111481,298.539307 
	C215.358490,299.512695 220.789597,300.780853 226.605194,302.159607 
	C221.424988,301.124847 215.860275,299.979462 210.111481,298.539307 
z"/>
<path fill="#058D57" opacity="1.000000" stroke="none" 
	d="
M195.170013,292.344482 
	C199.268967,293.814301 203.467148,295.602142 207.854599,297.698425 
	C203.785675,296.225403 199.527466,294.443970 195.170013,292.344482 
z"/>
<path fill="#0B915B" opacity="1.000000" stroke="none" 
	d="
M331.357056,254.876221 
	C331.501373,253.990631 331.938904,252.970444 332.666138,251.947540 
	C332.520660,252.877090 332.085480,253.809341 331.357056,254.876221 
z"/>
<path fill="#058D57" opacity="1.000000" stroke="none" 
	d="
M193.303406,291.127228 
	C193.678375,291.070312 194.241074,291.207153 194.905228,291.620605 
	C194.501495,291.705170 193.996338,291.513062 193.303406,291.127228 
z"/>
<path fill="#0B915B" opacity="1.000000" stroke="none" 
	d="
M330.393799,255.854553 
	C330.182068,255.650726 330.296356,255.395050 330.796753,255.150040 
	C330.892365,255.324554 330.738007,255.538544 330.393799,255.854553 
z"/>
<path fill="#058D57" opacity="1.000000" stroke="none" 
	d="
M228.265427,302.037567 
	C228.300079,301.895782 228.566284,301.762848 228.896332,301.830750 
	C228.960175,302.031647 228.496979,302.046417 228.265427,302.037567 
z"/>
<path fill="#F14B5E" opacity="1.000000" stroke="none" 
	d="
M190.979431,208.954102 
	C190.962784,209.308182 190.813828,209.593094 190.092209,210.044022 
	C189.443283,210.542801 189.234695,210.806427 189.026123,211.070038 
	C189.026138,211.070053 189.010727,211.010483 188.829681,211.152084 
	C188.384125,211.505417 188.176407,211.762970 188.025482,212.066315 
	C188.025482,212.066315 188.005905,212.009308 187.824203,212.151596 
	C187.435287,212.552612 187.228073,212.811325 187.020859,213.070053 
	C187.020859,213.070053 187.009369,213.008698 186.829437,213.151489 
	C186.440338,213.553421 186.231171,213.812561 186.022018,214.071716 
	C186.022018,214.071716 186.029343,214.009659 185.705200,214.095566 
	C184.172165,215.947968 182.963257,217.714478 181.754364,219.480988 
	C181.754364,219.480988 181.709976,219.700195 181.247528,219.640259 
	C178.833603,221.666656 176.882126,223.752991 174.930649,225.839325 
	C171.135452,229.888153 167.409363,234.004822 163.523102,237.964279 
	C160.436691,241.108841 158.960815,240.738953 157.271942,236.616425 
	C155.811813,233.052277 154.424805,229.458160 152.989807,225.101471 
	C152.652466,219.144150 156.871368,217.069809 159.812469,214.018372 
	C161.609848,212.153549 162.790558,209.694351 164.248230,207.502090 
	C164.248230,207.502090 164.294205,207.298538 164.753006,207.355301 
	C167.476105,205.240631 169.740402,203.069214 172.004715,200.897797 
	C173.447250,199.346451 174.889786,197.795105 176.828583,195.975433 
	C177.579742,195.496063 177.796677,195.251358 177.975616,194.972992 
	C177.975616,194.972992 178.000000,195.000000 178.322357,194.943939 
	C179.175888,194.090134 179.707092,193.292374 180.238281,192.494614 
	C180.238281,192.494614 180.292191,192.285812 180.749603,192.340378 
	C191.541504,188.598816 194.147125,178.844788 187.181320,170.030365 
	C185.856445,158.336014 192.015884,149.582626 199.084427,141.560699 
	C207.962204,131.485489 218.369232,123.334503 231.376007,118.900368 
	C241.309860,115.513817 256.863068,116.179062 263.889709,124.450859 
	C270.274567,131.967117 271.964264,140.889755 269.319641,149.976013 
	C263.306305,170.635788 250.876740,186.489883 231.202576,196.524872 
	C230.124069,196.118271 229.404694,195.593231 228.975845,195.770615 
	C221.333344,198.931702 213.904922,198.411682 206.401642,195.094681 
	C203.001587,193.591614 200.413330,195.927917 199.828888,200.441086 
	C199.828888,200.441086 199.736664,200.734909 199.241486,200.689117 
	C195.108307,201.212357 193.439728,203.559845 192.994843,207.012375 
	C192.994843,207.012375 192.991943,206.991913 192.715485,207.083008 
	C191.952499,207.767426 191.465958,208.360764 190.979431,208.954102 
z"/>
<path fill="#EE4D5F" opacity="1.000000" stroke="none" 
	d="
M293.036926,209.086990 
	C290.481598,212.445602 285.388794,214.166763 286.658630,220.218674 
	C288.740692,220.455109 290.356903,220.165985 291.973083,219.876862 
	C291.973083,219.876846 291.974152,219.965500 292.251678,219.972168 
	C292.671997,219.612686 292.814789,219.246536 292.957581,218.880386 
	C292.957581,218.880386 292.958130,218.958878 293.241333,218.969406 
	C293.669220,218.613693 293.813904,218.247437 293.958588,217.881180 
	C293.958588,217.881180 293.958984,217.959656 294.241882,217.969803 
	C294.669617,217.613998 294.814423,217.248047 294.959229,216.882095 
	C294.959229,216.882095 294.959564,216.960068 295.240845,216.970734 
	C295.669647,216.616455 295.817108,216.251511 295.964600,215.886566 
	C295.964600,215.886566 295.964935,215.965393 296.245972,215.969437 
	C296.671173,215.610260 296.815338,215.247055 296.959534,214.883850 
	C296.959534,214.883850 296.960052,214.960648 297.243927,214.971008 
	C297.671021,214.615005 297.814240,214.248627 297.957489,213.882263 
	C297.957489,213.882263 297.958191,213.958328 298.244934,213.971893 
	C298.671936,213.616653 298.812195,213.247849 298.952423,212.879028 
	C298.952423,212.879028 298.954712,212.947357 299.273010,213.009933 
	C303.666168,209.087402 307.741058,205.102280 311.815979,201.117157 
	C314.211304,198.586716 316.314880,195.639938 319.110474,193.680603 
	C320.810211,192.489349 323.578217,192.822327 325.866333,192.470581 
	C325.618469,194.472336 326.044617,196.980865 324.993591,198.378784 
	C322.090607,202.239990 318.516083,205.589233 315.304840,209.227158 
	C306.861053,218.792801 298.274323,228.242004 290.112640,238.044083 
	C282.307098,247.418457 272.624329,251.695847 261.061279,247.710068 
	C253.788330,245.203079 250.301941,249.292511 246.484940,253.186630 
	C239.311462,260.505096 232.442902,268.135498 225.685318,275.844635 
	C219.489883,282.912445 212.663498,286.706177 203.071777,281.099762 
	C197.405991,276.108826 197.499130,276.197266 202.596664,270.829681 
	C205.560379,267.708893 208.168015,264.249939 210.935867,260.943146 
	C210.935867,260.943146 210.983032,260.944733 211.172958,260.825104 
	C211.624496,260.496033 211.829117,260.240875 211.976746,259.940033 
	C211.976746,259.940033 211.988556,260.000702 212.318008,259.943481 
	C213.421753,258.902954 214.196045,257.919678 214.970337,256.936401 
	C214.970337,256.936401 214.994339,256.991791 215.328430,256.963654 
	C219.105789,253.582718 222.549042,250.229935 225.992310,246.877136 
	C226.788620,245.989365 227.584930,245.101578 228.860748,244.013336 
	C229.588760,243.656494 229.811493,243.469421 230.008438,243.251648 
	C231.627548,241.701141 233.324509,240.223160 234.850021,238.585480 
	C238.344727,234.833771 240.180267,231.404785 238.366180,225.376801 
	C234.913666,213.904541 237.882645,203.930435 248.197906,196.039078 
	C258.250641,188.348541 267.235504,179.263901 276.710449,170.815170 
	C280.023438,167.860962 283.300751,164.852768 286.776825,162.099564 
	C289.837097,159.675690 293.024658,158.621826 295.530823,163.996094 
	C294.577545,165.215546 293.386993,167.084854 291.865082,168.627182 
	C284.036621,176.560638 276.173401,184.461456 268.212433,192.261520 
	C265.366852,195.049591 265.178284,197.782776 267.805511,201.739609 
	C273.651154,196.559784 279.253082,191.595871 285.374207,186.297424 
	C288.323669,185.231644 291.361694,185.012680 290.002594,181.087555 
	C290.167450,180.781357 290.332275,180.475159 291.040039,180.181152 
	C292.127625,179.300064 292.672302,178.406769 293.216980,177.513489 
	C293.217010,177.513489 293.274384,177.282349 293.742310,177.332657 
	C296.984344,175.736115 299.758484,174.089279 302.532623,172.442429 
	C302.971130,172.833649 303.409637,173.224869 303.848145,173.616089 
	C302.564758,175.354874 301.200562,177.040909 300.021759,178.847931 
	C298.933746,180.515778 298.044617,182.313385 297.067871,184.053833 
	C297.067871,184.053833 297.008545,184.043213 296.833069,184.175674 
	C296.401184,184.523788 296.189606,184.776932 296.022858,185.067566 
	C296.022858,185.067566 296.007690,185.008331 295.834167,185.158997 
	C295.404297,185.526459 295.191071,185.779602 295.020996,186.069061 
	C295.020996,186.069061 295.008026,186.008560 294.834564,186.160156 
	C294.446381,186.566254 294.231659,186.820755 294.016937,187.075256 
	C294.016937,187.075256 294.009613,187.010208 293.838165,187.161011 
	C293.449738,187.566772 293.232727,187.821747 293.015717,188.076721 
	C293.015717,188.076706 293.010590,188.010513 292.838867,188.159576 
	C292.451019,188.563583 292.234894,188.818512 292.018738,189.073456 
	C292.018738,189.073441 292.010010,189.009949 291.837280,189.159607 
	C291.449341,189.563782 291.234192,189.818329 291.019012,190.072861 
	C291.019012,190.072861 291.009613,190.009735 290.836823,190.160095 
	C290.448975,190.565521 290.233948,190.820602 290.018890,191.075668 
	C290.018890,191.075668 290.011200,191.011063 289.839142,191.162689 
	C289.450134,191.570236 289.233215,191.826172 289.016266,192.082092 
	C289.016266,192.082092 289.013306,192.013489 288.842834,192.162109 
	C288.454529,192.565506 288.236694,192.820312 288.018860,193.075119 
	C288.018860,193.075119 288.011383,193.010910 287.839050,193.160156 
	C287.451447,193.563339 287.236145,193.817291 287.020874,194.071228 
	C287.020874,194.071243 287.009796,194.009598 286.836304,194.157898 
	C286.405212,194.521805 286.192230,194.774948 286.023865,195.065628 
	C286.023865,195.065628 286.008270,195.007111 285.833618,195.156647 
	C285.402283,195.520416 285.190582,195.772430 285.023834,196.062241 
	C285.023834,196.062241 285.038239,196.005493 284.668213,196.031311 
	C281.029602,196.163437 280.157410,198.287842 280.072388,201.075119 
	C280.072388,201.075119 280.019989,201.039185 279.844727,201.175781 
	C279.452271,201.568253 279.235077,201.824127 279.017883,202.080002 
	C279.017883,202.080002 279.012848,202.013153 278.841431,202.162750 
	C278.452545,202.567810 278.235138,202.823273 278.017731,203.078735 
	C278.017731,203.078735 278.044647,203.020355 277.716980,203.115601 
	C274.324524,204.957748 272.159668,206.875275 276.111206,209.952393 
	C276.111206,209.952393 276.034424,209.981766 276.175140,210.147736 
	C276.573547,210.537018 276.831268,210.760330 277.088959,210.983627 
	C277.088959,210.983627 277.556488,211.074036 278.057465,211.282562 
	C279.734131,211.068359 280.909851,210.645630 282.085541,210.222900 
	C283.202942,208.905899 284.320343,207.588913 285.929077,206.010880 
	C286.651062,205.546661 286.842041,205.311279 286.993317,205.043671 
	C287.474915,204.428391 287.956543,203.813110 289.077332,203.056320 
	C290.552948,201.779404 291.389343,200.644028 292.225769,199.508652 
	C292.225769,199.508652 292.284027,199.283142 292.754578,199.335464 
	C294.813965,197.547974 296.402802,195.708145 297.991638,193.868317 
	C298.012787,193.543198 298.161041,193.293533 299.011536,193.032761 
	C301.038910,191.615173 302.491119,190.284134 303.943298,188.953094 
	C303.977417,188.789093 304.011505,188.625122 304.293518,188.088898 
	C304.765259,187.522675 304.919586,187.283844 305.004486,187.000153 
	C305.041687,186.647949 305.205383,186.370316 306.018250,185.991882 
	C307.034943,185.225388 307.528870,184.634232 308.022797,184.043076 
	C308.022797,184.043076 308.002930,183.996552 308.381714,184.003448 
	C310.527588,183.336609 312.294678,182.662888 314.061768,181.989166 
	C314.394257,182.044449 314.655121,182.211533 314.856293,183.076782 
	C314.610016,185.126511 314.351776,186.589844 314.093536,188.053177 
	C314.093536,188.053177 314.075897,188.040253 313.868591,188.176773 
	C313.405487,188.522369 313.200775,188.773132 313.047089,189.065567 
	C313.047089,189.065567 313.004486,189.006165 312.826691,189.157227 
	C312.389709,189.517853 312.189148,189.773392 312.047150,190.074936 
	C312.047150,190.074936 312.051575,190.004852 311.774689,190.136581 
	C311.032867,190.873550 310.567932,191.478806 310.102997,192.084045 
	C310.102997,192.084045 310.043427,192.088821 309.865570,192.213623 
	C309.434265,192.553284 309.222290,192.803284 309.051819,193.088455 
	C309.051819,193.088455 309.022400,193.025482 308.850098,193.175201 
	C308.421631,193.536118 308.211731,193.786179 308.048126,194.075104 
	C308.048126,194.075104 308.014496,194.011673 307.843567,194.168396 
	C307.419342,194.536423 307.212036,194.785904 307.050659,195.073547 
	C307.050659,195.073547 307.009644,195.011414 306.840057,195.168671 
	C306.416656,195.536667 306.209564,195.786179 306.049194,196.074432 
	C306.049194,196.074432 306.008453,196.017853 305.837921,196.174591 
	C305.408508,196.547577 305.209015,196.809128 305.068939,197.115982 
	C304.590149,197.680222 304.111328,198.244446 303.169434,199.067612 
	C302.484985,199.576752 302.263611,199.826950 302.042236,200.077148 
	C302.042236,200.077148 302.022583,200.011703 301.850586,200.170837 
	C301.425293,200.540024 301.215759,200.787155 301.049957,201.071350 
	C301.049957,201.071350 301.010437,201.006668 300.839233,201.163330 
	C300.413818,201.526733 300.209167,201.774429 300.054077,202.063034 
	C300.054077,202.063034 300.076813,202.090805 299.708649,202.125580 
	C297.934387,203.793488 296.528320,205.426605 295.122223,207.059723 
	C295.122223,207.059723 295.091553,207.080139 294.880615,207.203064 
	C294.418579,207.537292 294.212677,207.786041 294.051971,208.072189 
	C294.051971,208.072189 294.005951,208.013718 293.836761,208.173279 
	C293.407074,208.542191 293.196869,208.793564 293.036926,209.086990 
z"/>
<path fill="#D65565" opacity="1.000000" stroke="none" 
	d="
M200.088684,200.270416 
	C200.413330,195.927917 203.001587,193.591614 206.401642,195.094681 
	C213.904922,198.411682 221.333344,198.931702 228.975845,195.770615 
	C229.404694,195.593231 230.124069,196.118271 230.853851,196.568115 
	C222.941269,200.718414 214.797150,201.374634 206.661514,197.174820 
	C203.098984,195.335739 202.359192,198.942337 200.088684,200.270416 
z"/>
<path fill="#D65565" opacity="1.000000" stroke="none" 
	d="
M210.582825,260.949524 
	C208.168015,264.249939 205.560379,267.708893 202.596664,270.829681 
	C197.499130,276.197266 197.405991,276.108826 202.870300,280.783142 
	C202.183426,281.015076 201.309036,281.097137 200.569534,280.819672 
	C194.045944,278.372131 193.644150,276.752747 198.506058,272.001740 
	C202.345581,268.249817 206.316971,264.632812 210.582825,260.949524 
z"/>
<path fill="#D65565" opacity="1.000000" stroke="none" 
	d="
M187.105850,170.431396 
	C194.147125,178.844788 191.541504,188.598816 180.854324,192.314697 
	C188.103683,186.755585 191.375824,179.955887 187.105850,170.431396 
z"/>
<path fill="#DD5665" opacity="1.000000" stroke="none" 
	d="
M297.384796,183.943604 
	C298.044617,182.313385 298.933746,180.515778 300.021759,178.847931 
	C301.200562,177.040909 302.564758,175.354874 303.848145,173.616089 
	C303.409637,173.224869 302.971130,172.833649 302.532623,172.442429 
	C299.758484,174.089279 296.984344,175.736115 293.857391,177.302094 
	C295.209595,175.462051 296.638336,173.138336 298.708496,172.125351 
	C300.315918,171.338806 303.133820,171.515106 304.684540,172.460052 
	C307.340149,174.078262 305.599365,176.011902 303.965912,177.593445 
	C301.848724,179.643341 299.787231,181.750732 297.384796,183.943604 
z"/>
<path fill="#D65565" opacity="1.000000" stroke="none" 
	d="
M163.989838,207.691650 
	C162.790558,209.694351 161.609848,212.153549 159.812469,214.018372 
	C156.871368,217.069809 152.652466,219.144150 152.960922,224.728363 
	C149.072250,222.385284 151.233063,219.524384 153.280182,217.351959 
	C156.494385,213.941040 160.221512,211.013474 163.989838,207.691650 
z"/>
<path fill="#EFB0B7" opacity="1.000000" stroke="none" 
	d="
M311.477295,201.067200 
	C307.741058,205.102280 303.666168,209.087402 299.239014,213.006363 
	C302.970703,208.965897 307.054657,204.991577 311.477295,201.067200 
z"/>
<path fill="#D65565" opacity="1.000000" stroke="none" 
	d="
M225.636993,246.913086 
	C222.549042,250.229935 219.105789,253.582718 215.300140,256.953186 
	C218.385727,253.630234 221.833694,250.289627 225.636993,246.913086 
z"/>
<path fill="#D65565" opacity="1.000000" stroke="none" 
	d="
M171.650879,200.928131 
	C169.740402,203.069214 167.476105,205.240631 164.854477,207.330994 
	C166.763794,205.152771 169.030426,203.055618 171.650879,200.928131 
z"/>
<path fill="#D65565" opacity="1.000000" stroke="none" 
	d="
M175.267761,225.825684 
	C176.882126,223.752991 178.833603,221.666656 181.138733,219.666061 
	C179.529877,221.771866 177.567368,223.791946 175.267761,225.825684 
z"/>
<path fill="#D65565" opacity="1.000000" stroke="none" 
	d="
M193.307800,206.900833 
	C193.439728,203.559845 195.108307,201.212357 199.094513,200.735046 
	C197.502060,202.814255 195.561401,204.801773 193.307800,206.900833 
z"/>
<path fill="#DD5665" opacity="1.000000" stroke="none" 
	d="
M276.078552,209.569290 
	C272.159668,206.875275 274.324524,204.957748 277.740295,203.137756 
	C277.409454,205.105179 276.727661,207.145691 276.078552,209.569290 
z"/>
<path fill="#DD5665" opacity="1.000000" stroke="none" 
	d="
M289.696503,181.187622 
	C291.361694,185.012680 288.323669,185.231644 285.550659,185.996902 
	C286.602112,184.449860 287.996246,182.868774 289.696503,181.187622 
z"/>
<path fill="#D65565" opacity="1.000000" stroke="none" 
	d="
M297.686646,194.002136 
	C296.402802,195.708145 294.813965,197.547974 292.867432,199.306671 
	C294.133698,197.529007 295.757660,195.832474 297.686646,194.002136 
z"/>
<path fill="#DD5665" opacity="1.000000" stroke="none" 
	d="
M280.382568,200.969009 
	C280.157410,198.287842 281.029602,196.163437 284.673828,196.060638 
	C283.597229,197.663727 282.145020,199.263306 280.382568,200.969009 
z"/>
<path fill="#D65565" opacity="1.000000" stroke="none" 
	d="
M182.011719,219.294006 
	C182.963257,217.714478 184.172165,215.947968 185.728302,214.116608 
	C184.806732,215.736847 183.537903,217.421936 182.011719,219.294006 
z"/>
<path fill="#C94A5A" opacity="1.000000" stroke="none" 
	d="
M295.430084,206.958466 
	C296.528320,205.426605 297.934387,203.793488 299.696777,202.139069 
	C298.614685,203.697571 297.176331,205.277390 295.430084,206.958466 
z"/>
<path fill="#C94A5A" opacity="1.000000" stroke="none" 
	d="
M313.891052,181.668518 
	C312.294678,182.662888 310.527588,183.336609 308.402893,184.017365 
	C309.936951,183.132233 311.828644,182.240067 313.891052,181.668518 
z"/>
<path fill="#D65565" opacity="1.000000" stroke="none" 
	d="
M303.605896,188.988281 
	C302.491119,190.284134 301.038910,191.615173 299.227051,192.969116 
	C300.334442,191.669174 301.801453,190.346313 303.605896,188.988281 
z"/>
<path fill="#EFB0B7" opacity="1.000000" stroke="none" 
	d="
M291.617584,219.914093 
	C290.356903,220.165985 288.740692,220.455109 286.930786,220.459381 
	C288.245392,220.100128 289.753754,220.025726 291.617584,219.914093 
z"/>
<path fill="#D65565" opacity="1.000000" stroke="none" 
	d="
M291.983459,199.684692 
	C291.389343,200.644028 290.552948,201.779404 289.354492,202.944000 
	C289.908661,201.935715 290.824890,200.898239 291.983459,199.684692 
z"/>
<path fill="#DD5665" opacity="1.000000" stroke="none" 
	d="
M292.993530,177.688171 
	C292.672302,178.406769 292.127625,179.300064 291.295105,180.097534 
	C291.594879,179.288788 292.182465,178.575836 292.993530,177.688171 
z"/>
<path fill="#C94A5A" opacity="1.000000" stroke="none" 
	d="
M314.424316,187.930267 
	C314.351776,186.589844 314.610016,185.126511 314.945435,183.297043 
	C314.933472,184.556412 314.844269,186.181885 314.424316,187.930267 
z"/>
<path fill="#D65565" opacity="1.000000" stroke="none" 
	d="
M214.680237,257.051331 
	C214.196045,257.919678 213.421753,258.902954 212.300262,259.917969 
	C212.765427,259.021881 213.577774,258.094086 214.680237,257.051331 
z"/>
<path fill="#DD5665" opacity="1.000000" stroke="none" 
	d="
M281.735077,210.108185 
	C280.909851,210.645630 279.734131,211.068359 278.285797,211.350006 
	C279.136963,210.803757 280.260803,210.398605 281.735077,210.108185 
z"/>
<path fill="#D65565" opacity="1.000000" stroke="none" 
	d="
M180.010681,192.667770 
	C179.707092,193.292374 179.175888,194.090134 178.309586,194.931381 
	C178.577332,194.263550 179.180191,193.552246 180.010681,192.667770 
z"/>
<path fill="#C94A5A" opacity="1.000000" stroke="none" 
	d="
M310.388763,192.001312 
	C310.567932,191.478806 311.032867,190.873550 311.784119,190.171448 
	C311.605103,190.689270 311.139801,191.303925 310.388763,192.001312 
z"/>
<path fill="#C94A5A" opacity="1.000000" stroke="none" 
	d="
M307.727814,184.101669 
	C307.528870,184.634232 307.034943,185.225388 306.249390,185.902252 
	C306.449493,185.378723 306.941162,184.769501 307.727814,184.101669 
z"/>
<path fill="#D65565" opacity="1.000000" stroke="none" 
	d="
M191.267792,208.879974 
	C191.465958,208.360764 191.952499,207.767426 192.725769,207.084076 
	C192.527084,207.597992 192.041626,208.201920 191.267792,208.879974 
z"/>
<path fill="#EFB0B7" opacity="1.000000" stroke="none" 
	d="
M293.687439,217.950867 
	C293.813904,218.247437 293.669220,218.613693 293.202087,218.969330 
	C293.058533,218.645996 293.237427,218.333267 293.687439,217.950867 
z"/>
<path fill="#D65565" opacity="1.000000" stroke="none" 
	d="
M188.298431,212.015015 
	C188.176407,211.762970 188.384125,211.505417 188.859467,211.159790 
	C188.904007,211.338486 188.737701,211.651108 188.298431,212.015015 
z"/>
<path fill="#EFB0B7" opacity="1.000000" stroke="none" 
	d="
M292.685852,218.950897 
	C292.814789,219.246536 292.671997,219.612686 292.207336,219.972443 
	C292.061707,219.651169 292.237915,219.336288 292.685852,218.950897 
z"/>
<path fill="#EFB0B7" opacity="1.000000" stroke="none" 
	d="
M294.688354,216.951996 
	C294.814423,217.248047 294.669617,217.613998 294.202637,217.969635 
	C294.059479,217.646835 294.238464,217.334366 294.688354,216.951996 
z"/>
<path fill="#D65565" opacity="1.000000" stroke="none" 
	d="
M229.751251,243.203064 
	C229.811493,243.469421 229.588760,243.656494 229.142410,243.906647 
	C229.127747,243.718475 229.310913,243.436493 229.751251,243.203064 
z"/>
<path fill="#D65565" opacity="1.000000" stroke="none" 
	d="
M211.705154,259.988068 
	C211.829117,260.240875 211.624496,260.496033 211.153549,260.836365 
	C211.107330,260.656891 211.270447,260.346497 211.705154,259.988068 
z"/>
<path fill="#DD5665" opacity="1.000000" stroke="none" 
	d="
M293.287292,188.014999 
	C293.232727,187.821747 293.449738,187.566772 293.870789,187.163788 
	C293.902863,187.328262 293.730865,187.640778 293.287292,188.014999 
z"/>
<path fill="#C94A5A" opacity="1.000000" stroke="none" 
	d="
M305.327576,197.038727 
	C305.209015,196.809128 305.408508,196.547577 305.870453,196.187103 
	C305.911072,196.349091 305.748657,196.655273 305.327576,197.038727 
z"/>
<path fill="#C94A5A" opacity="1.000000" stroke="none" 
	d="
M306.317017,196.022705 
	C306.209564,195.786179 306.416656,195.536667 306.872131,195.187592 
	C306.910797,195.356506 306.747833,195.663742 306.317017,196.022705 
z"/>
<path fill="#DD5665" opacity="1.000000" stroke="none" 
	d="
M285.293671,196.007141 
	C285.190582,195.772430 285.402283,195.520416 285.862732,195.164886 
	C285.898834,195.333084 285.731171,195.642548 285.293671,196.007141 
z"/>
<path fill="#DD5665" opacity="1.000000" stroke="none" 
	d="
M294.286682,187.013275 
	C294.231659,186.820755 294.446381,186.566254 294.864990,186.165878 
	C294.898041,186.330429 294.727264,186.640854 294.286682,187.013275 
z"/>
<path fill="#D65565" opacity="1.000000" stroke="none" 
	d="
M177.717499,195.037949 
	C177.796677,195.251358 177.579742,195.496063 177.121811,195.846741 
	C177.098999,195.691895 177.279190,195.397400 177.717499,195.037949 
z"/>
<path fill="#C94A5A" opacity="1.000000" stroke="none" 
	d="
M307.318481,195.021851 
	C307.212036,194.785904 307.419342,194.536423 307.874390,194.186798 
	C307.912872,194.355713 307.749603,194.662933 307.318481,195.021851 
z"/>
<path fill="#DD5665" opacity="1.000000" stroke="none" 
	d="
M286.292603,195.006470 
	C286.192230,194.774948 286.405212,194.521805 286.867096,194.163467 
	C286.901398,194.329590 286.731354,194.638443 286.292603,195.006470 
z"/>
<path fill="#C94A5A" opacity="1.000000" stroke="none" 
	d="
M308.314819,194.020966 
	C308.211731,193.786179 308.421631,193.536118 308.882416,193.188019 
	C308.918518,193.356369 308.750031,193.661606 308.314819,194.020966 
z"/>
<path fill="#DD5665" opacity="1.000000" stroke="none" 
	d="
M287.292725,194.013428 
	C287.236145,193.817291 287.451447,193.563339 287.871155,193.164215 
	C287.905212,193.331223 287.734894,193.643417 287.292725,194.013428 
z"/>
<path fill="#C94A5A" opacity="1.000000" stroke="none" 
	d="
M302.312927,200.024750 
	C302.263611,199.826950 302.484985,199.576752 302.918762,199.193726 
	C302.948639,199.364731 302.766113,199.668533 302.312927,200.024750 
z"/>
<path fill="#C94A5A" opacity="1.000000" stroke="none" 
	d="
M309.323303,193.036652 
	C309.222290,192.803284 309.434265,192.553284 309.888245,192.194336 
	C309.924133,192.361771 309.759460,192.673309 309.323303,193.036652 
z"/>
<path fill="#DD5665" opacity="1.000000" stroke="none" 
	d="
M288.291718,193.015564 
	C288.236694,192.820312 288.454529,192.565506 288.877167,192.163177 
	C288.909485,192.329102 288.737030,192.642548 288.291718,193.015564 
z"/>
<path fill="#DD5665" opacity="1.000000" stroke="none" 
	d="
M289.289246,192.021057 
	C289.233215,191.826172 289.450134,191.570236 289.871521,191.165955 
	C289.904694,191.331757 289.733459,191.645905 289.289246,192.021057 
z"/>
<path fill="#DD5665" opacity="1.000000" stroke="none" 
	d="
M290.288513,191.012756 
	C290.233948,190.820602 290.448975,190.565521 290.868469,190.164246 
	C290.901306,190.328644 290.729706,190.639236 290.288513,191.012756 
z"/>
<path fill="#C94A5A" opacity="1.000000" stroke="none" 
	d="
M312.305939,190.009766 
	C312.189148,189.773392 312.389709,189.517853 312.856812,189.177872 
	C312.898071,189.346497 312.731415,189.645554 312.305939,190.009766 
z"/>
<path fill="#DD5665" opacity="1.000000" stroke="none" 
	d="
M291.288818,190.011124 
	C291.234192,189.818329 291.449341,189.563782 291.869049,189.163712 
	C291.901917,189.328568 291.730255,189.638977 291.288818,190.011124 
z"/>
<path fill="#C94A5A" opacity="1.000000" stroke="none" 
	d="
M313.312378,189.012268 
	C313.200775,188.773132 313.405487,188.522369 313.865845,188.179825 
	C313.906189,188.350555 313.741943,188.654770 313.312378,189.012268 
z"/>
<path fill="#DD5665" opacity="1.000000" stroke="none" 
	d="
M292.289185,189.011459 
	C292.234894,188.818512 292.451019,188.563583 292.871948,188.162170 
	C292.904388,188.326935 292.731995,188.638199 292.289185,189.011459 
z"/>
<path fill="#D65565" opacity="1.000000" stroke="none" 
	d="
M189.302551,211.014786 
	C189.234695,210.806427 189.443283,210.542801 189.864517,210.141174 
	C189.911118,210.321930 189.745041,210.640732 189.302551,211.014786 
z"/>
<path fill="#EFB0B7" opacity="1.000000" stroke="none" 
	d="
M296.687744,214.953064 
	C296.815338,215.247055 296.671173,215.610260 296.206543,215.969315 
	C296.062744,215.650848 296.239349,215.336563 296.687744,214.953064 
z"/>
<path fill="#EFB0B7" opacity="1.000000" stroke="none" 
	d="
M297.686523,213.951813 
	C297.814240,214.248627 297.671021,214.615005 297.205566,214.970932 
	C297.060699,214.647446 297.238129,214.334412 297.686523,213.951813 
z"/>
<path fill="#DD5665" opacity="1.000000" stroke="none" 
	d="
M296.290466,185.007111 
	C296.189606,184.776932 296.401184,184.523788 296.861237,184.165497 
	C296.895935,184.330795 296.726990,184.638733 296.290466,185.007111 
z"/>
<path fill="#EFB0B7" opacity="1.000000" stroke="none" 
	d="
M298.681366,212.948318 
	C298.812195,213.247849 298.671936,213.616653 298.206909,213.971863 
	C298.058197,213.644714 298.234253,213.331161 298.681366,212.948318 
z"/>
<path fill="#D65565" opacity="1.000000" stroke="none" 
	d="
M186.293457,214.013916 
	C186.231171,213.812561 186.440338,213.553421 186.860138,213.157074 
	C186.902145,213.331940 186.733521,213.644028 186.293457,214.013916 
z"/>
<path fill="#D65565" opacity="1.000000" stroke="none" 
	d="
M187.285233,213.004395 
	C187.228073,212.811325 187.435287,212.552612 187.853333,212.159286 
	C187.892654,212.329376 187.721130,212.634048 187.285233,213.004395 
z"/>
<path fill="#C94A5A" opacity="1.000000" stroke="none" 
	d="
M304.758209,187.056793 
	C304.919586,187.283844 304.765259,187.522675 304.373047,187.850555 
	C304.307007,187.694138 304.409454,187.403793 304.758209,187.056793 
z"/>
<path fill="#DD5665" opacity="1.000000" stroke="none" 
	d="
M277.018860,210.711853 
	C276.831268,210.760330 276.573547,210.537018 276.160614,210.109283 
	C276.319824,210.083267 276.634308,210.261688 277.018860,210.711853 
z"/>
<path fill="#EFB0B7" opacity="1.000000" stroke="none" 
	d="
M295.692444,215.953918 
	C295.817108,216.251511 295.669647,216.616455 295.201904,216.970581 
	C295.061157,216.646927 295.240692,216.334091 295.692444,215.953918 
z"/>
<path fill="#C94A5A" opacity="1.000000" stroke="none" 
	d="
M293.307922,209.034103 
	C293.196869,208.793564 293.407074,208.542191 293.869873,208.190186 
	C293.907776,208.358734 293.743378,208.669983 293.307922,209.034103 
z"/>
<path fill="#C94A5A" opacity="1.000000" stroke="none" 
	d="
M294.319641,208.021576 
	C294.212677,207.786041 294.418579,207.537292 294.870056,207.187988 
	C294.909393,207.356979 294.748322,207.663971 294.319641,208.021576 
z"/>
<path fill="#D65565" opacity="1.000000" stroke="none" 
	d="
M286.746460,205.100128 
	C286.842041,205.311279 286.651062,205.546661 286.235809,205.884644 
	C286.200684,205.731842 286.350128,205.444214 286.746460,205.100128 
z"/>
<path fill="#DD5665" opacity="1.000000" stroke="none" 
	d="
M278.289124,203.016266 
	C278.235138,202.823273 278.452545,202.567810 278.874878,202.164764 
	C278.906708,202.329391 278.733612,202.641602 278.289124,203.016266 
z"/>
<path fill="#C94A5A" opacity="1.000000" stroke="none" 
	d="
M300.319641,202.013535 
	C300.209167,201.774429 300.413818,201.526733 300.869934,201.185547 
	C300.909607,201.355408 300.747406,201.659729 300.319641,202.013535 
z"/>
<path fill="#DD5665" opacity="1.000000" stroke="none" 
	d="
M279.289429,202.017258 
	C279.235077,201.824127 279.452271,201.568253 279.874390,201.164490 
	C279.906555,201.329239 279.733765,201.641876 279.289429,202.017258 
z"/>
<path fill="#DD5665" opacity="1.000000" stroke="none" 
	d="
M295.289612,186.008621 
	C295.191071,185.779602 295.404297,185.526459 295.864014,185.165527 
	C295.897675,185.330353 295.727936,185.639267 295.289612,186.008621 
z"/>
<path fill="#C94A5A" opacity="1.000000" stroke="none" 
	d="
M301.317871,201.021179 
	C301.215759,200.787155 301.425293,200.540024 301.878784,200.190063 
	C301.914612,200.357117 301.750214,200.664047 301.317871,201.021179 
z"/>
<path fill="#169E60" opacity="1.000000" stroke="none" 
	d="
M298.996033,289.002655 
	C298.992096,289.005310 298.957397,288.910706 298.981506,288.951172 
	C299.005615,288.991669 299.000000,289.000000 298.996033,289.002655 
z"/>
</svg>